<svg xmlns="http://www.w3.org/2000/svg" width="40" height="40" viewBox="0 0 40 40"><g transform="translate(-990.242 -1387.24)"><path d="M20,0A20,20,0,1,1,0,20,20,20,0,0,1,20,0Z" transform="translate(990.242 1387.24)" fill="#fff"/><g transform="translate(3 3)"><circle cx="11" cy="11" r="11" transform="translate(994.242 1391.24)" fill="#fff"/><path d="M11,3a8,8,0,1,0,8,8,8.009,8.009,0,0,0-8-8m0-3A11,11,0,1,1,0,11,11,11,0,0,1,11,0Z" transform="translate(994.242 1391.24)" fill="#0a6934"/><path d="M3,0H8A3,3,0,0,1,8,6H3C1.343,6,1.343,0,3,0Z" transform="translate(1012.464 1404.998) rotate(45)" fill="#0a6934"/><g transform="translate(0.742 1.24)"><path d="M8,1.5H0A1.5,1.5,0,0,1-1.5,0,1.5,1.5,0,0,1,0-1.5H8A1.5,1.5,0,0,1,9.5,0,1.5,1.5,0,0,1,8,1.5Z" transform="translate(1000.5 1401)" fill="#0a6934"/><path d="M8,1.5H0A1.5,1.5,0,0,1-1.5,0,1.5,1.5,0,0,1,0-1.5H8A1.5,1.5,0,0,1,9.5,0,1.5,1.5,0,0,1,8,1.5Z" transform="translate(1004.5 1397) rotate(90)" fill="#0a6934"/></g></g></g></svg>