<svg xmlns="http://www.w3.org/2000/svg" xmlns:xlink="http://www.w3.org/1999/xlink" width="40.775" height="28.753" viewBox="0 0 40.775 28.753"><defs><clipPath id="a"><rect width="40.775" height="28.753" transform="translate(0 0)" fill="none"/></clipPath></defs><g transform="translate(0 0)"><g transform="translate(0 0)" clip-path="url(#a)"><path d="M35.28,17.881H24.049a5.064,5.064,0,0,0-2.061.141c-.8.367-.622,1.233-.622,1.968V36.175H49.228V27.521a.833.833,0,0,1,1.246-.709v-.636H47.06v.546a.778.778,0,0,1,.751.8v6.906a.847.847,0,0,1-.835.835H23.536a.847.847,0,0,1-.835-.835V20.213a.847.847,0,0,1,.835-.835H35.28a.846.846,0,0,1,.569,1.442h1.236v-4.2h-1.1a.836.836,0,0,1-.7,1.261" transform="translate(-15.408 -11.995)" fill="#fff"/><path d="M42.323,93.471H5.932a1,1,0,0,0,.789,1.062,3.036,3.036,0,0,0,.525,0c.861.072,1.76,0,2.624,0H41.559c.6-.07.745-.56.764-1.062" transform="translate(-4.281 -67.46)" fill="#fff"/><path d="M44.919,34.4V31.714H43.684a.77.77,0,0,1-.569.228H32.205V44.486h21.77V38.415a.8.8,0,0,1,.919-.8v-.546H47.636A2.394,2.394,0,0,1,44.919,34.4" transform="translate(-23.243 -22.889)" fill="#edad23"/><path d="M49.645,34.675v6.071H27.875V28.2H38.784a.769.769,0,0,0,.569-.228.846.846,0,0,0-.569-1.442H27.04a.847.847,0,0,0-.835.835V41.581a.847.847,0,0,0,.835.835h23.44a.847.847,0,0,0,.835-.835V34.675a.778.778,0,0,0-.75-.8.8.8,0,0,0-.919.8" transform="translate(-18.913 -19.149)" fill="#323232"/><path d="M38.857,34.968H35.489V26.153a.754.754,0,0,0-.424-.709v0a.833.833,0,0,0-1.246.709v8.654H5.957V18.622c0-.734-.173-1.6.623-1.968a5.064,5.064,0,0,1,2.061-.141H19.871a.836.836,0,0,0,.7-1.261h0a.755.755,0,0,0-.7-.408H13.257a45.726,45.726,0,0,0-6.7.036c-2.6.4-2.27,3.092-2.27,5.03V34.968H.835A.847.847,0,0,0,0,35.8c0,1.721.329,3.436,2.415,3.566.4.025.807,0,1.206,0H37.077a.881.881,0,0,0,.2,0,.861.861,0,0,0,.262-.042c1.842-.336,2.152-1.808,2.152-3.524a.847.847,0,0,0-.835-.835M37.278,37.7H5.589c-.863,0-1.763.072-2.624,0a3.089,3.089,0,0,1-.525,0,1,1,0,0,1-.79-1.062H38.042c-.02.5-.16.992-.764,1.062" transform="translate(0 -10.626)" fill="#323232"/><path d="M97.6,5.855H87.436c-.705,0-3.41-.457-3.76.393a6.447,6.447,0,0,0,0,1.913v6.8c0,.511-.2,1.449.355,1.682a3.664,3.664,0,0,0,1.113,0H99.036c.623-.083.355-1.749.355-2.088V7.088c0-.505.151-1.032-.382-1.233a4.959,4.959,0,0,0-1.412,0m-.556,3.624-5.177,3.85c-.016.011-.031.017-.046.028a.894.894,0,0,1-1.189.065L85.551,9.349c-.838-.673.35-1.847,1.181-1.181L91.2,11.754l5-3.716c.863-.642,1.7.808.843,1.442" transform="translate(-60.33 -4.137)" fill="#fff"/><path d="M96.943,2.266C96.852.17,95.2.049,93.566.049H85.9c-1.949,0-3.932-.109-5.878,0-2.279.127-2.13,2.174-2.13,3.865v.712h0v6.882a2.393,2.393,0,0,0,2.716,2.674H91.278v0H94.7a.839.839,0,0,0,.22,0,.853.853,0,0,0,.319-.061c2.172-.52,1.705-3.059,1.705-4.868,0-2.321.1-4.667,0-6.986M94.92,12.511H81.027a3.666,3.666,0,0,1-1.113,0c-.553-.233-.354-1.171-.354-1.682v-6.8a6.445,6.445,0,0,1,0-1.913c.351-.85,3.055-.393,3.76-.393H93.48a4.951,4.951,0,0,1,1.412,0c.532.2.381.728.381,1.233v7.471c0,.34.269,2-.354,2.089" transform="translate(-56.213 0)" fill="#323232"/><path d="M100.539,13.6l-5,3.716L91.072,13.73c-.83-.666-2.019.508-1.181,1.181l5.077,4.074a.894.894,0,0,0,1.189-.065c.015-.01.031-.016.046-.028l5.177-3.85c.853-.634.021-2.084-.843-1.442" transform="translate(-64.67 -9.699)" fill="#edad23"/></g></g></svg>