<svg xmlns="http://www.w3.org/2000/svg" xmlns:xlink="http://www.w3.org/1999/xlink" width="40.775" height="42.727" viewBox="0 0 40.775 42.727"><defs><clipPath id="a"><rect width="40.775" height="42.727" fill="none"/></clipPath></defs><g clip-path="url(#a)"><path d="M68.146,12.048l-1.367-1.367L57.971,1.873,56.6.506A1.731,1.731,0,0,0,55.38,0H38.644A4.348,4.348,0,0,0,34.3,4.347V38.379a4.348,4.348,0,0,0,4.348,4.348H64.3a4.348,4.348,0,0,0,4.348-4.348V13.272a1.73,1.73,0,0,0-.507-1.224" transform="translate(-27.877 0.001)" fill="#fff"/><path d="M118.146,12.048l-1.367-1.367-8.808-8.808L106.6.506A1.731,1.731,0,0,0,105.38,0H88.644A4.348,4.348,0,0,0,84.3,4.347v4.6H86.17v-4.6a2.474,2.474,0,0,1,2.474-2.474H106.1V9.837a2.717,2.717,0,0,0,2.717,2.717h7.964V38.379a2.474,2.474,0,0,1-2.474,2.474H88.644a2.474,2.474,0,0,1-2.474-2.474V22.5H84.3V38.379a4.348,4.348,0,0,0,4.348,4.348H114.3a4.348,4.348,0,0,0,4.348-4.348V13.272a1.73,1.73,0,0,0-.507-1.224" transform="translate(-77.877 0.001)" fill="#df2d2d"/><path d="M22.988,135.329v8.627a1.215,1.215,0,0,1-1.215,1.215H1.215A1.215,1.215,0,0,1,0,143.956v-8.627a1.215,1.215,0,0,1,1.215-1.215H21.773a1.215,1.215,0,0,1,1.215,1.215" transform="translate(0 -123.902)" fill="#e02d2d"/><path d="M55.916,166.277a3.091,3.091,0,0,0-1.614-.361h-1.93v6.127h1.087v-2.252h.881a2.762,2.762,0,0,0,1.577-.42,1.8,1.8,0,0,0,.754-1.567,1.653,1.653,0,0,0-.754-1.528m-1.667,2.645h-.791v-2.136h.753c.911,0,1.387.259,1.387,1.02s-.435,1.117-1.349,1.117" transform="translate(-48.384 -153.283)" fill="#fff"/><path d="M125.623,165.916h-1.634v6.127h1.69c1.821,0,2.931-1.061,2.931-3.088a2.71,2.71,0,0,0-2.987-3.039m-.071,5.247h-.476V166.8h.476c1.233,0,1.942.652,1.942,2.159s-.708,2.208-1.942,2.208" transform="translate(-114.548 -153.283)" fill="#fff"/><path d="M204.6,166.83v-.914h-3.7v6.128h1.087v-2.56h2.226v-.914h-2.226V166.83Z" transform="translate(-185.604 -153.282)" fill="#fff"/><rect width="20.33" height="1.523" transform="translate(13.45 27.75)" fill="#de2d2d"/><rect width="20.33" height="1.523" transform="translate(13.45 31.253)" fill="#de2d2d"/><rect width="20.33" height="1.523" transform="translate(13.45 34.756)" fill="#de2d2d"/></g></svg>