<?xml version="1.0" encoding="UTF-8"?>
<svg id="layer1" xmlns="http://www.w3.org/2000/svg" width="24.3" height="24" version="1.1" viewBox="0 0 24.3 24">
  <!-- Generator: Adobe Illustrator 29.1.0, SVG Export Plug-In . SVG Version: 2.1.0 Build 142)  -->
  <path d="M12.1,0C5.4,0,0,5.4,0,12s5.4,12,12.1,12,12.1-5.4,12.1-12S18.8,0,12.1,0ZM17,10.6s0,0,0,0l-4.6,4.6c-.3.3-.8.3-1.1,0l-4.7-4.6c-.3-.3-.3-.8,0-1.1,0,0,0,0,0,0,.3-.3.8-.3,1.1,0l4.1,4.1,4.1-4.1c.3-.3.8-.3,1.1,0,.3.3.3.8,0,1.1Z" fill="#0a6934"/>
</svg>