<?xml version="1.0" encoding="UTF-8"?><svg id="_レイヤー_1" xmlns="http://www.w3.org/2000/svg" xmlns:xlink="http://www.w3.org/1999/xlink" viewBox="0 0 31.44 40.16"><defs><clipPath id="clippath"><rect y="0" width="31.44" height="40.16" fill="none"/></clipPath></defs><g clip-path="url(#clippath)"><rect x=".92" y="0" width="29.59" height="40.16" fill="#fff"/><path d="M23.99,14.17c0-4.57-3.71-8.27-8.27-8.27-4.57,0-8.27,3.71-8.27,8.27,0,3.37,2.04,6.4,5.16,7.66-.08-1.36-.08-2.72,0-4.07.1-1.08.61-2.09,1.41-2.82-.19-.06-.36-.16-.51-.28-.55-.48-.85-1.17-.83-1.9,0-1.07.6-2.05,1.55-2.53.99-.53,2.19-.49,3.14.1,1.26.73,1.69,2.35.96,3.61-.25.43-.61.78-1.05,1.01,1.63,1.33,1.62,3.19,1.62,6.55v.32c3.08-1.28,5.09-4.3,5.09-7.64" fill="#ffd23d"/><path d="M24.53,40.16H.46c-.25,0-.46-.21-.46-.46V.46C0,.21.21,0,.46,0h5.63c.25.01.45.23.44.48-.01.24-.2.43-.44.44H.92v38.31h23.61c.25.01.45.23.44.48-.01.24-.2.43-.44.44" fill="#1a1311"/><path d="M30.98,40.16h-4.1c-.25-.01-.45-.23-.44-.48.01-.24.2-.43.44-.44h3.63V.92H8.47c-.25.01-.47-.18-.48-.44-.01-.25.18-.47.44-.48.01,0,.03,0,.04,0h22.5c.25,0,.46.21.46.46v39.23c0,.25-.21.46-.46.46" fill="#1a1311"/><path d="M12.62,21.99c-.24,0-.44-.19-.46-.43-.09-1.28-.1-2.56-.01-3.84.09-.99.48-1.92,1.12-2.67l-.03-.02c-.67-.56-1.05-1.4-1.03-2.28,0-1.24.69-2.37,1.79-2.93,1.14-.62,2.52-.57,3.61.11.91.56,1.48,1.53,1.53,2.6,0,.94-.42,1.84-1.12,2.47,1.34,1.43,1.34,3.37,1.34,6.41v.08c.01.25-.18.47-.44.48-.25.01-.47-.18-.48-.44,0-.01,0-.03,0-.04v-.08c0-3.28,0-4.93-1.45-6.12-.2-.16-.23-.45-.06-.65.04-.05.1-.1.16-.13,1.06-.58,1.44-1.91.86-2.96-.19-.35-.48-.65-.84-.85-.81-.5-1.83-.53-2.67-.08-.81.4-1.32,1.22-1.31,2.12-.02.58.21,1.14.64,1.53.12.1.25.18.4.22.24.09.37.35.28.59-.03.07-.07.14-.12.19-.71.66-1.16,1.55-1.26,2.52-.08,1.23-.08,2.47.01,3.71.02.25-.18.47-.43.49h-.03" fill="#1a1311"/><path d="M15.72,22.9c-4.82,0-8.73-3.91-8.73-8.73,0-4.82,3.91-8.73,8.73-8.73,4.82,0,8.73,3.91,8.73,8.73,0,4.82-3.91,8.73-8.73,8.73M15.72,6.36c-4.31,0-7.81,3.5-7.81,7.81s3.5,7.81,7.81,7.81,7.81-3.5,7.81-7.81h0c0-4.31-3.5-7.81-7.81-7.81" fill="#1a1311"/><path d="M25.22,27.69H6.22c-.25.01-.47-.18-.48-.44-.01-.25.18-.47.44-.48.01,0,.03,0,.04,0h18.99c.25-.01.47.18.48.44.01.25-.18.47-.44.48-.01,0-.03,0-.04,0" fill="#1a1311"/><path d="M25.22,30.95H6.22c-.25.01-.47-.18-.48-.44-.01-.25.18-.47.44-.48.01,0,.03,0,.04,0h18.99c.25-.01.47.18.48.44.01.25-.18.47-.44.48-.01,0-.03,0-.04,0" fill="#1a1311"/><path d="M25.22,34.22H6.22c-.25.01-.47-.18-.48-.44-.01-.25.18-.47.44-.48.01,0,.03,0,.04,0h18.99c.25-.01.47.18.48.44.01.25-.18.47-.44.48-.01,0-.03,0-.04,0" fill="#1a1311"/></g></svg>