<?xml version="1.0" encoding="UTF-8"?><svg id="_レイヤー_1" xmlns="http://www.w3.org/2000/svg" viewBox="0 0 253.8 686.91"><defs><style>.cls-1{fill:#3b5da2;}</style></defs><path class="cls-1" d="M224.97,12.9c-1.58,1.49-2.89,1.21-3.53.34-.02-.03-.05-.09-.08-.14-.03-.04-.07-.06-.1-.1-.79-1.07-.54-2.77.55-3.79.12-.11.37-.29.56-.4,1.62-1.31,4.2-1.77,4.81-.94.64.87-.63,3.56-2.21,5.05"/><path class="cls-1" d="M238.43,18.18c.14,2.17,1.29,2.85,2.35,2.65.03-.01.1-.03.16-.05.05,0,.09,0,.14-.01,1.31-.25,2.29-1.66,2.19-3.15,0-.16-.07-.46-.14-.68-.29-2.07-1.87-4.16-2.87-3.97-1.06.2-1.97,3.03-1.82,5.2"/><path class="cls-1" d="M229.15,19.25c-1.33,2.05-3.07,2.11-4.24,1.34-.03-.03-.11-.09-.16-.13-.05-.03-.11-.05-.16-.08-1.44-.94-1.87-2.84-.95-4.25.1-.15.33-.42.52-.59,1.44-1.87,4.46-3.08,5.57-2.36,1.17.76.75,4.02-.57,6.07"/><path class="cls-1" d="M230.96,19.78c-.29,2.37.98,3.51,2.34,3.68.05,0,.14,0,.2,0,.06.01.11.03.18.04,1.67.21,3.19-.95,3.39-2.59.03-.18.02-.52-.02-.78.09-2.31-1.41-5.12-2.7-5.28-1.36-.17-3.1,2.54-3.39,4.92"/><path class="cls-1" d="M238.51,11.14c-1.13.87-3.22,1.5-4.67,1.41-.26.02-.78-.07-1.16-.2-.03,0-.09-.03-.13-.05-.03,0-.09-.03-.13-.05-.27-.08-.72-.34-1.02-.59-.97-.48-2.16-2.3-2.67-4.08-.96-3.35.16-6.61,2.5-7.28.16-.05.32-.08.4-.08.04,0,.17-.07.29-.14.1-.22,1.03.06,2.06.62.13.07.4.26.61.42.04.03.13.1.19.15.43.34.9.71,1.44.91.4.12,1.14.23,1.66.23.06,0,.17,0,.26,0,.17-.01.51.02.76.07,1,.2,1.79.59,1.9.82.06.12.14.25.18.29.06.04.19.21.29.37,1.36,2.02.12,5.23-2.76,7.18"/><path class="cls-1" d="M58.26,270.09c1.67,1.86,3.19,1.67,4.01.74.02-.03.07-.1.11-.15.04-.04.08-.07.12-.11,1.01-1.15.9-3.12-.25-4.41-.12-.14-.39-.37-.6-.52-1.72-1.67-4.64-2.45-5.42-1.57-.82.93.36,4.15,2.03,6.01"/><path class="cls-1" d="M42.31,274.8c-.38,2.47-1.76,3.14-2.96,2.8-.04-.02-.12-.05-.17-.07-.05-.01-.11-.01-.16-.03-1.47-.41-2.45-2.13-2.19-3.83.02-.18.12-.53.22-.76.54-2.34,2.56-4.58,3.69-4.26,1.2.34,1.95,3.68,1.57,6.15"/><path class="cls-1" d="M52.83,276.96c1.32,2.48,3.31,2.72,4.73,1.97.04-.03.13-.09.2-.13.06-.03.13-.05.2-.08,1.75-.93,2.43-3.07,1.52-4.78-.09-.19-.34-.51-.54-.73-1.47-2.29-4.8-3.98-6.15-3.26-1.42.75-1.27,4.53.05,7.01"/><path class="cls-1" d="M50.71,277.39c.1,2.75-1.47,3.93-3.05,3.99-.05,0-.16,0-.23-.01-.07,0-.13.02-.21.03-1.94.07-3.57-1.41-3.63-3.31-.01-.2.03-.6.1-.89.12-2.66,2.13-5.73,3.62-5.78,1.58-.06,3.3,3.23,3.4,5.98"/><path class="cls-1" d="M42.92,266.72c1.21,1.11,3.54,2.04,5.21,2.08.29.05.9,0,1.35-.12.03,0,.1-.02.16-.04.03,0,.1-.03.15-.05.31-.06.86-.32,1.23-.57,1.16-.45,2.71-2.42,3.47-4.41,1.44-3.74.48-7.59-2.14-8.59-.18-.07-.36-.12-.45-.14-.05-.01-.19-.1-.32-.19-.1-.26-1.18-.03-2.43.51-.16.07-.49.26-.75.42-.05.03-.16.1-.24.15-.53.35-1.1.73-1.74.9-.47.1-1.33.14-1.92.1-.07,0-.2-.02-.3-.02-.2-.03-.59-.03-.87,0-1.17.13-2.11.5-2.26.74-.08.14-.19.28-.23.32-.07.05-.24.22-.37.39-1.76,2.18-.67,5.99,2.45,8.51"/><path class="cls-1" d="M114.55,359.76c1.5,2,3.03,1.95,3.93,1.09.03-.03.08-.1.12-.14.04-.03.09-.06.13-.1,1.11-1.06,1.17-3.03.13-4.41-.11-.15-.36-.41-.56-.57-1.57-1.81-4.41-2.84-5.26-2.03-.9.86,0,4.16,1.5,6.17"/><path class="cls-1" d="M98.25,363.05c-.6,2.43-2.03,2.97-3.19,2.53-.04-.02-.11-.06-.17-.08-.05-.01-.1-.02-.16-.04-1.43-.54-2.26-2.34-1.85-4.01.04-.18.17-.51.29-.74.74-2.28,2.95-4.34,4.05-3.92,1.16.44,1.63,3.83,1.03,6.26"/><path class="cls-1" d="M108.54,366.12c1.1,2.59,3.05,3,4.54,2.37.05-.03.14-.08.21-.11.07-.02.13-.03.2-.06,1.82-.77,2.69-2.84,1.93-4.62-.08-.19-.29-.54-.48-.78-1.26-2.41-4.44-4.38-5.84-3.79-1.48.63-1.66,4.41-.56,6.99"/><path class="cls-1" d="M106.39,366.36c-.14,2.75-1.81,3.79-3.38,3.71-.05,0-.16-.02-.23-.03-.07,0-.14.01-.21,0-1.94-.1-3.43-1.72-3.33-3.61,0-.2.09-.59.18-.87.36-2.64,2.62-5.52,4.11-5.45,1.57.08,3.01,3.5,2.86,6.25"/><path class="cls-1" d="M99.56,355.06c1.1,1.21,3.35,2.34,5.01,2.53.29.07.89.07,1.35,0,.03,0,.11-.02.16-.02.03,0,.1-.02.16-.03.32-.03.89-.24,1.27-.47,1.19-.35,2.91-2.18,3.84-4.09,1.76-3.6,1.14-7.52-1.38-8.75-.17-.08-.35-.15-.44-.18-.05-.02-.18-.11-.3-.22-.07-.26-1.17-.13-2.46.29-.16.05-.51.21-.78.35-.05.03-.17.08-.25.13-.56.3-1.16.63-1.81.74-.48.06-1.34.03-1.92-.07-.06-.01-.2-.03-.29-.04-.19-.05-.58-.08-.87-.07-1.17.03-2.15.31-2.32.55-.09.13-.21.26-.26.29-.07.04-.25.2-.41.35-1.95,2.02-1.19,5.91,1.7,8.69"/><path class="cls-1" d="M83.22,120.39c.11,2.17,1.24,2.87,2.3,2.69.03,0,.11-.03.16-.04.05,0,.09,0,.14,0,1.31-.22,2.31-1.62,2.24-3.11,0-.16-.06-.47-.12-.68-.25-2.07-1.79-4.19-2.8-4.02-1.07.18-2.02,3-1.91,5.17"/><path class="cls-1" d="M69.87,114.84c-1.61,1.46-2.91,1.16-3.53.28-.02-.03-.05-.1-.08-.14-.03-.04-.07-.07-.09-.1-.77-1.09-.49-2.78.62-3.78.12-.11.37-.29.57-.39,1.64-1.29,4.23-1.7,4.82-.86.63.88-.69,3.55-2.3,5.01"/><path class="cls-1" d="M75.8,122.05c-.47,2.4.74,3.65,2.12,3.91.05,0,.14.01.21.02.06.02.11.04.18.05,1.69.33,3.32-.74,3.64-2.39.04-.18.05-.53.03-.79.26-2.35-1.07-5.31-2.37-5.57-1.37-.27-3.34,2.37-3.8,4.76"/><path class="cls-1" d="M74.13,121.18c-1.44,1.91-3.14,1.85-4.24,1.03-.03-.03-.1-.09-.15-.14-.05-.03-.1-.06-.15-.09-1.35-1.02-1.63-2.9-.64-4.22.1-.14.35-.39.55-.54,1.54-1.73,4.57-2.71,5.61-1.92,1.09.82.46,3.98-.98,5.89"/><path class="cls-1" d="M74.7,109.72c.21,1.41,1.27,3.31,2.38,4.26.17.19.61.49.98.66.03.01.08.04.13.06.03.01.09.04.13.05.24.13.76.26,1.14.28,1.03.33,3.15-.16,4.75-1.08,3.02-1.74,4.47-4.86,3.26-6.97-.08-.14-.18-.28-.23-.34-.03-.03-.08-.17-.11-.3.08-.23-.78-.67-1.92-.99-.14-.04-.47-.09-.73-.12-.05,0-.16-.02-.24-.03-.55-.05-1.14-.11-1.67-.34-.37-.19-.98-.63-1.35-.98-.04-.04-.13-.12-.19-.18-.12-.13-.38-.34-.59-.48-.86-.55-1.7-.82-1.94-.73-.13.05-.28.08-.33.09-.07,0-.28.02-.47.06-2.38.51-3.73,3.68-3,7.08"/><path class="cls-1" d="M16.96,164.83c-.04,2.17,1.03,2.95,2.11,2.85.04,0,.11-.02.16-.03.05,0,.09,0,.14,0,1.32-.13,2.42-1.45,2.45-2.95,0-.16-.03-.47-.08-.69-.11-2.08-1.5-4.31-2.51-4.2-1.08.11-2.23,2.85-2.27,5.02"/><path class="cls-1" d="M4.04,158.36c-1.71,1.34-2.98.95-3.54.03-.01-.03-.05-.1-.07-.15-.03-.04-.06-.07-.09-.11-.69-1.14-.3-2.81.88-3.73.12-.1.39-.26.59-.35,1.73-1.17,4.34-1.4,4.87-.52.56.92-.94,3.49-2.65,4.84"/><path class="cls-1" d="M9.45,165.97c-.63,2.36.49,3.69,1.84,4.05.05,0,.14.02.2.04.06.02.11.05.17.06,1.66.44,3.36-.51,3.8-2.13.05-.17.09-.52.09-.79.42-2.33-.7-5.37-1.97-5.72-1.35-.36-3.49,2.13-4.12,4.49"/><path class="cls-1" d="M7.84,164.98c-1.57,1.81-3.27,1.63-4.3.73-.03-.03-.09-.1-.14-.15-.05-.04-.1-.06-.15-.1-1.27-1.11-1.43-3.01-.35-4.26.11-.14.38-.36.59-.5,1.66-1.62,4.75-2.38,5.73-1.53,1.03.9.18,4.01-1.38,5.81"/><path class="cls-1" d="M9.21,153.59c.11,1.42,1.04,3.39,2.08,4.41.16.2.57.53.93.73.03.01.08.05.12.07.03.02.08.04.12.06.24.15.74.31,1.12.36,1,.4,3.16.07,4.82-.74,3.13-1.53,4.8-4.54,3.74-6.73-.07-.15-.16-.29-.2-.36-.03-.04-.06-.18-.09-.31.09-.22-.73-.72-1.84-1.12-.14-.05-.46-.13-.72-.17-.05-.01-.16-.03-.24-.04-.54-.09-1.13-.19-1.64-.46-.36-.21-.93-.7-1.28-1.08-.04-.04-.12-.13-.18-.19-.11-.14-.36-.37-.56-.51-.82-.61-1.64-.94-1.88-.87-.13.04-.28.07-.33.06-.07-.01-.28,0-.47.03-2.41.34-3.97,3.41-3.49,6.86"/><path class="cls-1" d="M91.66,402.15c1.91,1.61,3.39,1.21,4.07.17.02-.04.06-.11.09-.17.03-.04.07-.08.1-.12.84-1.28.46-3.22-.86-4.33-.14-.12-.44-.32-.67-.43-1.94-1.41-4.93-1.78-5.58-.8-.68,1.04.94,4.06,2.85,5.67"/><path class="cls-1" d="M76.52,409.03c-.04,2.5-1.31,3.35-2.54,3.19-.04-.01-.12-.03-.18-.04-.05,0-.11,0-.16,0-1.52-.2-2.73-1.77-2.7-3.49,0-.19.05-.54.11-.79.2-2.39,1.89-4.89,3.06-4.74,1.23.17,2.45,3.37,2.41,5.87"/><path class="cls-1" d="M87.24,409.71c1.65,2.27,3.65,2.24,4.95,1.29.04-.04.12-.11.18-.16.06-.04.12-.06.18-.11,1.6-1.16,1.98-3.38.84-4.94-.12-.17-.4-.46-.64-.65-1.77-2.06-5.31-3.27-6.54-2.38-1.3.95-.63,4.67,1.03,6.94"/><path class="cls-1" d="M85.2,410.43c.48,2.71-.91,4.1-2.46,4.37-.05,0-.16.01-.23.02-.07.02-.13.04-.2.06-1.91.34-3.73-.9-4.06-2.77-.04-.2-.05-.6-.02-.89-.25-2.65,1.31-5.97,2.78-6.23,1.55-.27,3.72,2.74,4.19,5.45"/><path class="cls-1" d="M76,400.95c1.35.93,3.79,1.53,5.45,1.34.3,0,.89-.13,1.32-.3.03-.01.1-.04.15-.06.03-.01.1-.04.15-.07.3-.1.81-.43,1.14-.74,1.08-.61,2.35-2.78,2.82-4.85.9-3.91-.58-7.58-3.31-8.21-.19-.04-.37-.07-.47-.07-.05,0-.2-.07-.34-.15-.13-.24-1.17.13-2.33.84-.15.09-.45.32-.68.52-.05.04-.14.12-.21.18-.48.42-.99.87-1.6,1.13-.45.16-1.3.33-1.89.37-.07,0-.2.01-.3.02-.2,0-.59.05-.86.13-1.14.29-2.02.79-2.14,1.05-.06.15-.15.3-.19.34-.06.05-.2.25-.32.44-1.44,2.4.17,6.02,3.61,8.09"/><path class="cls-1" d="M50.41,213.65c-.04,2.17,1.03,2.95,2.11,2.85.04,0,.11-.02.16-.03.05,0,.09,0,.14,0,1.32-.13,2.42-1.45,2.45-2.95,0-.16-.03-.47-.08-.69-.11-2.08-1.5-4.31-2.51-4.2-1.08.11-2.23,2.85-2.27,5.02"/><path class="cls-1" d="M37.48,207.18c-1.71,1.34-2.98.95-3.54.03-.01-.03-.05-.1-.07-.15-.03-.04-.06-.07-.09-.11-.69-1.14-.3-2.81.88-3.73.12-.1.39-.26.59-.35,1.73-1.17,4.34-1.4,4.87-.52.56.92-.94,3.49-2.65,4.84"/><path class="cls-1" d="M42.89,214.79c-.63,2.36.49,3.69,1.84,4.05.05,0,.14.02.2.04.06.02.11.05.17.06,1.66.44,3.36-.51,3.8-2.13.05-.17.09-.52.09-.79.42-2.33-.7-5.37-1.97-5.72-1.35-.36-3.49,2.13-4.12,4.49"/><path class="cls-1" d="M41.29,213.8c-1.57,1.81-3.27,1.63-4.3.73-.03-.03-.09-.1-.14-.15-.05-.04-.1-.06-.15-.1-1.27-1.11-1.43-3.01-.35-4.26.11-.14.38-.36.59-.5,1.66-1.62,4.75-2.38,5.73-1.53,1.03.9.18,4.01-1.38,5.81"/><path class="cls-1" d="M42.66,202.41c.11,1.42,1.04,3.39,2.08,4.41.16.2.57.53.93.73.03.01.08.05.12.07.03.02.08.04.12.06.24.15.74.31,1.12.36,1,.4,3.16.07,4.82-.74,3.13-1.53,4.8-4.54,3.74-6.73-.07-.15-.16-.29-.2-.36-.03-.04-.06-.18-.09-.31.09-.22-.73-.72-1.84-1.12-.14-.05-.46-.13-.72-.17-.05-.01-.16-.03-.24-.04-.54-.09-1.13-.19-1.64-.46-.36-.21-.93-.7-1.28-1.08-.04-.04-.12-.13-.18-.19-.11-.14-.36-.37-.56-.51-.82-.61-1.64-.94-1.88-.87-.13.04-.28.07-.33.06-.07-.01-.28,0-.47.03-2.41.34-3.97,3.41-3.49,6.86"/><path class="cls-1" d="M149.13,589.04c2.41-.67,2.91-2.12,2.43-3.27-.02-.04-.06-.11-.09-.16-.02-.05-.02-.1-.04-.16-.58-1.41-2.4-2.19-4.06-1.72-.18.05-.51.19-.73.31-2.26.81-4.25,3.08-3.8,4.17.48,1.15,3.88,1.51,6.29.83"/><path class="cls-1" d="M146.29,605.43c2.05,1.44,2.04,2.97,1.21,3.89-.03.03-.09.08-.14.13-.03.04-.06.09-.09.13-1.02,1.14-2.99,1.26-4.4.27-.15-.1-.42-.34-.59-.54-1.86-1.51-2.98-4.32-2.19-5.19.83-.93,4.16-.13,6.21,1.31"/><path class="cls-1" d="M152.88,596.95c2.81-.09,3.9-1.76,3.85-3.37,0-.05-.02-.16-.03-.24,0-.07.02-.14.01-.21-.06-1.98-1.68-3.53-3.61-3.47-.21,0-.61.07-.89.16-2.7.31-5.69,2.55-5.64,4.08.05,1.61,3.51,3.14,6.31,3.05"/><path class="cls-1" d="M152.33,599.04c2.51,1.13,2.88,3.06,2.23,4.5-.03.04-.08.14-.11.2-.02.07-.04.13-.07.2-.8,1.77-2.84,2.57-4.57,1.8-.19-.08-.52-.3-.75-.48-2.33-1.29-4.2-4.44-3.59-5.8.65-1.44,4.35-1.53,6.86-.4"/><path class="cls-1" d="M139.32,601.32c1.52-.59,3.39-2.27,4.17-3.75.17-.24.39-.81.49-1.26,0-.03.02-.1.03-.16,0-.03.02-.1.03-.16.08-.31.1-.91.03-1.35.11-1.23-.98-3.5-2.42-5.06-2.72-2.94-6.6-3.78-8.65-1.88-.14.13-.26.27-.32.34-.03.04-.17.13-.31.2-.27-.03-.55,1.05-.62,2.4,0,.17.01.55.05.85,0,.06.02.19.03.28.08.63.17,1.31.04,1.96-.12.46-.46,1.26-.76,1.77-.03.06-.1.17-.15.26-.11.16-.29.52-.38.79-.4,1.1-.49,2.12-.33,2.36.09.13.17.29.18.35,0,.08.09.31.18.51,1.17,2.54,5.08,3.24,8.72,1.56"/><path class="cls-1" d="M217.38,598.32c2.41-.67,2.91-2.12,2.43-3.27-.02-.04-.06-.11-.09-.16-.02-.05-.02-.1-.04-.16-.58-1.41-2.4-2.19-4.06-1.72-.18.05-.51.19-.73.31-2.26.81-4.25,3.08-3.8,4.17.48,1.15,3.88,1.51,6.29.83"/><path class="cls-1" d="M214.55,614.71c2.05,1.44,2.04,2.97,1.21,3.89-.03.03-.09.08-.14.13-.03.04-.06.09-.09.13-1.02,1.14-2.99,1.26-4.4.27-.15-.1-.42-.34-.59-.54-1.86-1.51-2.98-4.32-2.19-5.19.83-.93,4.16-.13,6.21,1.31"/><path class="cls-1" d="M221.14,606.23c2.81-.09,3.9-1.76,3.85-3.37,0-.05-.02-.16-.03-.24,0-.07.02-.14.01-.21-.06-1.98-1.68-3.53-3.61-3.47-.21,0-.61.07-.89.16-2.7.31-5.69,2.55-5.64,4.08.05,1.61,3.51,3.14,6.31,3.05"/><path class="cls-1" d="M220.59,608.32c2.51,1.13,2.88,3.06,2.23,4.5-.03.04-.08.14-.11.2-.02.07-.04.13-.07.2-.8,1.77-2.84,2.57-4.57,1.8-.19-.08-.52-.3-.75-.48-2.33-1.29-4.2-4.44-3.59-5.8.65-1.44,4.35-1.53,6.86-.4"/><path class="cls-1" d="M207.58,610.6c1.52-.59,3.39-2.27,4.17-3.75.17-.24.39-.81.49-1.26,0-.03.02-.1.03-.16,0-.03.02-.1.03-.16.08-.31.1-.91.03-1.35.11-1.23-.98-3.5-2.42-5.06-2.72-2.94-6.6-3.78-8.65-1.88-.14.13-.26.27-.32.34-.03.04-.17.13-.31.2-.27-.03-.55,1.05-.62,2.4,0,.17.01.55.05.85,0,.06.02.19.03.28.08.63.17,1.31.04,1.96-.12.46-.46,1.26-.76,1.77-.03.06-.1.17-.15.26-.11.16-.29.52-.38.79-.4,1.1-.49,2.12-.33,2.36.09.13.17.29.18.35,0,.08.09.31.18.51,1.17,2.54,5.08,3.24,8.72,1.56"/><path class="cls-1" d="M100.58,554.26c.6,2.43-.41,3.58-1.64,3.73-.04,0-.12,0-.19,0-.05,0-.1.03-.16.04-1.52.19-3.09-1.01-3.5-2.69-.05-.18-.09-.53-.09-.79-.41-2.36.58-5.21,1.75-5.36,1.23-.15,3.22,2.63,3.83,5.06"/><path class="cls-1" d="M113.44,543.71c2.26,1.07,3.59.31,3.98-.87,0-.04.03-.12.04-.18.02-.05.05-.09.07-.15.49-1.45-.38-3.23-1.94-3.97-.17-.08-.51-.19-.76-.25-2.23-.87-5.22-.46-5.6.65-.39,1.18,1.94,3.68,4.2,4.76"/><path class="cls-1" d="M109.31,553.63c1.31,2.49.39,4.26-1.03,5.01-.05.02-.15.06-.22.09-.06.04-.11.08-.18.12-1.75.92-3.9.28-4.81-1.43-.1-.18-.24-.57-.3-.86-1.07-2.5-.59-6.21.76-6.92,1.42-.75,4.46,1.5,5.77,3.98"/><path class="cls-1" d="M110.86,552.12c2.22,1.63,4.08.99,5.01-.28.03-.05.08-.13.12-.2.04-.05.1-.1.14-.15,1.15-1.57.84-3.74-.69-4.86-.16-.12-.51-.31-.79-.42-2.27-1.39-5.94-1.46-6.82-.26-.93,1.27.81,4.54,3.03,6.17"/><path class="cls-1" d="M106.42,539.67c.24,1.62-.3,4.07-1.21,5.48-.13.27-.51.74-.85,1.05-.03.02-.08.07-.12.11-.03.02-.08.07-.12.1-.23.22-.75.54-1.16.69-1.02.7-3.53.88-5.6.39-3.9-.92-6.54-3.87-5.9-6.6.04-.19.1-.36.14-.45.02-.05.03-.21.02-.37-.16-.22.64-.99,1.78-1.72.14-.09.49-.26.77-.38.05-.03.17-.07.26-.11.59-.24,1.22-.5,1.72-.93.35-.33.87-1.02,1.17-1.53.03-.06.1-.17.15-.26.09-.18.31-.5.49-.72.77-.89,1.6-1.47,1.89-1.45.16,0,.34,0,.39-.01.08-.03.32-.07.53-.09,2.79-.23,5.33,2.82,5.66,6.81"/><path class="cls-1" d="M247.34,666.96c2.5-.07,3.34-1.35,3.15-2.58-.01-.04-.03-.12-.05-.18,0-.05,0-.11,0-.16-.22-1.51-1.8-2.7-3.53-2.66-.19,0-.54.06-.79.13-2.39.24-4.87,1.96-4.69,3.12.18,1.23,3.4,2.4,5.9,2.33"/><path class="cls-1" d="M240.62,682.18c1.64,1.89,1.26,3.37.23,4.07-.04.02-.11.06-.16.09-.04.03-.08.07-.12.1-1.27.86-3.21.5-4.34-.8-.12-.14-.32-.44-.44-.66-1.44-1.92-1.85-4.91-.87-5.57,1.03-.7,4.07.88,5.71,2.77"/><path class="cls-1" d="M249.07,675.54c2.74.59,4.21-.76,4.55-2.34,0-.05.02-.16.03-.24.02-.07.05-.13.06-.2.42-1.94-.77-3.84-2.66-4.25-.2-.05-.61-.07-.91-.06-2.7-.36-6.14,1.1-6.46,2.59-.34,1.57,2.64,3.9,5.39,4.49"/><path class="cls-1" d="M248.03,677.44c2.16,1.7,2.05,3.66,1.07,4.9-.04.04-.11.11-.16.17-.04.06-.07.12-.11.17-1.2,1.52-3.38,1.81-4.87.63-.16-.12-.44-.41-.61-.65-1.95-1.82-3-5.33-2.08-6.5.98-1.24,4.59-.43,6.76,1.27"/><path class="cls-1" d="M234.85,676.5c1.62-.21,3.84-1.38,4.95-2.63.22-.19.58-.69.78-1.11.02-.03.05-.1.07-.14.01-.03.04-.1.07-.15.16-.28.31-.86.35-1.31.4-1.17-.1-3.63-1.12-5.5-1.93-3.51-5.48-5.27-7.94-3.92-.17.09-.32.2-.4.26-.04.03-.2.08-.35.12-.26-.09-.79.88-1.18,2.18-.05.16-.12.54-.16.84-.01.06-.03.18-.04.28-.08.63-.16,1.31-.44,1.91-.23.42-.75,1.11-1.16,1.53-.05.05-.14.14-.21.21-.15.13-.4.43-.56.67-.65.98-.98,1.94-.89,2.21.05.15.09.32.09.38-.01.08.01.32.06.54.52,2.75,4.14,4.38,8.08,3.63"/><path class="cls-1" d="M48.44,505.67c1.86,1.67,3.35,1.32,4.07.3.02-.04.06-.11.09-.16.03-.04.08-.08.11-.12.88-1.25.56-3.2-.72-4.35-.14-.13-.43-.33-.66-.45-1.89-1.47-4.88-1.93-5.55-.97-.72,1.02.81,4.08,2.67,5.76"/><path class="cls-1" d="M33.08,512.06c-.11,2.5-1.41,3.31-2.64,3.11-.04-.01-.12-.03-.18-.05-.05,0-.11,0-.16,0-1.51-.25-2.67-1.85-2.59-3.57,0-.19.07-.54.14-.78.28-2.38,2.05-4.83,3.21-4.64,1.23.2,2.34,3.44,2.22,5.94"/><path class="cls-1" d="M43.78,513.08c1.58,2.32,3.58,2.35,4.91,1.45.04-.04.12-.1.19-.15.06-.04.13-.06.18-.1,1.64-1.11,2.08-3.31,1-4.91-.11-.17-.39-.47-.62-.67-1.71-2.12-5.21-3.44-6.47-2.58-1.33.9-.77,4.64.81,6.97"/><path class="cls-1" d="M41.71,513.73c.39,2.73-1.04,4.07-2.6,4.29-.05,0-.16,0-.23.01-.07.01-.13.04-.2.05-1.92.28-3.7-1.02-3.97-2.9-.03-.2-.03-.6,0-.89-.16-2.66,1.5-5.93,2.98-6.14,1.56-.22,3.63,2.85,4.02,5.58"/><path class="cls-1" d="M32.82,503.97c1.32.97,3.74,1.64,5.4,1.51.3.02.89-.1,1.33-.26.03-.01.1-.04.15-.05.03-.01.1-.04.15-.06.3-.09.82-.41,1.16-.7,1.1-.57,2.43-2.7,2.98-4.76,1.02-3.88-.34-7.6-3.05-8.31-.18-.05-.37-.08-.46-.09-.05,0-.2-.08-.34-.16-.12-.25-1.18.1-2.36.77-.15.08-.46.31-.7.5-.05.04-.15.12-.22.18-.49.4-1.01.84-1.63,1.08-.46.15-1.31.29-1.9.31-.07,0-.2,0-.3.01-.2,0-.59.04-.87.1-1.14.26-2.05.72-2.17.99-.07.14-.16.3-.2.34-.06.05-.21.24-.33.43-1.52,2.35-.02,6.02,3.35,8.2"/><path class="cls-1" d="M210.74,81.45c.41,2.14,1.62,2.67,2.65,2.35.03-.02.1-.04.15-.06.05-.01.09-.01.14-.03,1.27-.4,2.07-1.92,1.79-3.39-.03-.16-.12-.45-.22-.66-.54-2.01-2.36-3.9-3.33-3.59-1.03.33-1.59,3.25-1.18,5.39"/><path class="cls-1" d="M196.75,77.8c-1.39,1.67-2.72,1.55-3.46.76-.02-.03-.07-.09-.1-.13-.03-.03-.07-.06-.11-.09-.91-.97-.87-2.68.09-3.83.1-.13.33-.34.51-.47,1.45-1.5,3.96-2.27,4.66-1.52.74.79-.19,3.61-1.59,5.28"/><path class="cls-1" d="M203.62,84.12c-.13,2.44,1.24,3.51,2.64,3.58.05,0,.14,0,.21,0,.06,0,.12.02.18.03,1.72.09,3.18-1.2,3.27-2.87.01-.18-.02-.53-.08-.79-.07-2.36-1.79-5.11-3.12-5.19-1.4-.07-2.98,2.81-3.11,5.24"/><path class="cls-1" d="M201.85,83.49c-1.16,2.09-2.86,2.27-4.06,1.6-.04-.03-.11-.08-.17-.11-.05-.03-.11-.04-.17-.07-1.47-.82-2.02-2.65-1.22-4.09.08-.16.29-.43.47-.61,1.29-1.93,4.15-3.31,5.29-2.68,1.2.67,1.01,3.88-.15,5.97"/><path class="cls-1" d="M200.83,72.06c.4,1.36,1.72,3.1,2.95,3.88.2.17.67.4,1.06.52.03,0,.09.03.13.04.03,0,.09.02.14.03.26.1.78.15,1.17.12,1.06.18,3.1-.59,4.56-1.73,2.75-2.14,3.76-5.43,2.26-7.36-.1-.13-.21-.25-.27-.31-.03-.03-.1-.16-.15-.29.04-.23-.87-.55-2.03-.71-.15-.02-.48-.03-.74-.02-.05,0-.16,0-.24,0-.55.02-1.14.05-1.7-.11-.39-.14-1.05-.49-1.48-.79-.05-.03-.14-.1-.21-.15-.13-.11-.43-.28-.65-.39-.93-.42-1.8-.57-2.02-.46-.12.06-.26.12-.31.13-.07,0-.27.06-.45.12-2.29.83-3.18,4.16-1.99,7.43"/><path class="cls-1" d="M141.89,65.21c-.57,2.1.29,3.11,1.36,3.27.04,0,.11,0,.16,0,.05.01.09.03.13.04,1.32.19,2.7-.83,3.09-2.27.05-.16.09-.46.09-.69.4-2.05-.42-4.54-1.43-4.69-1.07-.15-2.85,2.23-3.41,4.33"/><path class="cls-1" d="M130.9,55.82c-1.98.89-3.12.21-3.44-.82,0-.04-.02-.11-.03-.16-.02-.04-.04-.08-.06-.13-.4-1.27.39-2.8,1.75-3.41.15-.07.44-.16.66-.2,1.96-.72,4.55-.31,4.85.66.32,1.03-1.75,3.17-3.73,4.06"/><path class="cls-1" d="M134.32,64.51c-1.18,2.14-.41,3.7.81,4.37.04.02.13.05.19.08.05.03.1.07.15.1,1.51.83,3.39.31,4.2-1.16.09-.16.21-.49.28-.74.97-2.15.62-5.39-.54-6.03-1.22-.68-3.9,1.23-5.08,3.36"/><path class="cls-1" d="M133,63.17c-1.96,1.38-3.56.79-4.35-.33-.02-.04-.07-.12-.1-.18-.04-.05-.08-.09-.12-.14-.97-1.38-.66-3.27.69-4.21.14-.1.45-.26.69-.35,2-1.17,5.18-1.17,5.93-.11.79,1.12-.78,3.93-2.74,5.31"/><path class="cls-1" d="M137.07,52.44c-.23,1.4.19,3.54.96,4.78.1.24.43.65.73.93.02.02.07.06.1.1.02.02.07.06.11.09.19.2.64.48,1,.62.88.63,3.05.82,4.86.44,3.41-.73,5.75-3.25,5.24-5.63-.04-.16-.08-.32-.11-.39-.02-.04-.02-.19,0-.32.14-.19-.54-.87-1.52-1.53-.12-.08-.42-.24-.66-.34-.05-.02-.15-.07-.22-.1-.51-.22-1.05-.46-1.48-.84-.29-.29-.74-.9-.99-1.35-.03-.05-.08-.15-.13-.23-.07-.16-.26-.44-.42-.63-.65-.79-1.37-1.3-1.62-1.29-.14,0-.29,0-.34-.02-.07-.03-.27-.07-.46-.09-2.42-.25-4.68,2.35-5.03,5.82"/></svg>