<svg xmlns="http://www.w3.org/2000/svg" width="85.559" height="56.62" viewBox="0 0 85.559 56.62"><g transform="translate(-730.188 -2155)"><rect width="85.559" height="56.62" rx="15" transform="translate(730.188 2155)" fill="#fff"/><path d="M15,2A13,13,0,0,0,2,15V41.62a13,13,0,0,0,13,13H70.559a13,13,0,0,0,13-13V15a13,13,0,0,0-13-13H15m0-2H70.559a15,15,0,0,1,15,15V41.62a15,15,0,0,1-15,15H15a15,15,0,0,1-15-15V15A15,15,0,0,1,15,0Z" transform="translate(730.188 2155)" fill="#373737"/><path d="M12.11,2.99a2,2,0,0,1,3.462,0L25.943,20.9a2,2,0,0,1-1.731,3H3.469a2,2,0,0,1-1.731-3Z" transform="translate(787.435 2169.469) rotate(90)" fill="#f6d25e"/><path d="M13.84,3.992h0L3.469,21.906H24.212s0,0,0,0L13.84,3.992h0m0-2a1.981,1.981,0,0,1,1.731,1L25.943,20.9a2,2,0,0,1-1.731,3H3.469a2,2,0,0,1-1.731-3L12.11,2.99A1.981,1.981,0,0,1,13.84,1.992Z" transform="translate(787.435 2169.469) rotate(90)" fill="#373737"/></g></svg>