<?xml version="1.0" encoding="UTF-8"?>
<svg id="_レイヤー_2" data-name="レイヤー 2" xmlns="http://www.w3.org/2000/svg" viewBox="0 0 197 99.6">
  <defs>
    <style>
      .cls-1, .cls-2 {
        fill: #3d62ad;
      }

      .cls-2 {
        font-family: NotoSansJP-Bold, 'Noto Sans JP';
        font-size: 13px;
        font-weight: 700;
      }

      .cls-3 {
        letter-spacing: 0em;
      }

      .cls-4 {
        letter-spacing: 0em;
      }

      .cls-5 {
        letter-spacing: 0em;
      }

      .cls-6 {
        letter-spacing: 0em;
      }

      .cls-7 {
        letter-spacing: 0em;
      }

      .cls-8 {
        letter-spacing: 0em;
      }
    </style>
  </defs>
  <g id="_レイヤー_1-2" data-name="レイヤー 1">
    <g>
      <text class="cls-2" transform="translate(70.3 11.4)"><tspan class="cls-4" x="0" y="0">３分</tspan><tspan class="cls-8" x="27.3" y="0">で</tspan><tspan class="cls-5" x="40.9" y="0">わか</tspan><tspan x="68.2" y="0">る</tspan></text>
      <text class="cls-2" transform="translate(41.8 28.1)"><tspan class="cls-4" x="0" y="0">ジャ</tspan><tspan class="cls-7" x="27.3" y="0">パ</tspan><tspan class="cls-4" x="40.9" y="0">ンケネ</tspan><tspan class="cls-6" x="81.9" y="0">ル</tspan><tspan class="cls-3" x="95.5" y="0">クラ</tspan><tspan x="122.8" y="0">ブ</tspan></text>
      <path class="cls-1" d="M179.9,40c.9.1,13.1-2,15-2.2,2.7-.4,2,.3,2,.3,0,0-11.1,26.5-11.8,26.6-.6.1-4.8-17.3-6.7-22-2.4-3.7-6.1-2.5-6.1-2.5,0,0-23.7,55.1-23.7,55.3.1,1.6,16.5,4.3,26.2-12.8l2.3,1.3s-7.7,15.7-25.7,15.3c-9.2-.1-13.6-3.4-17.1-9.3-3.4-5.6-3.9-13.3-.9-22.6,3.1-9.7,10.9-18.7,16.2-22.6,19.3-13.9,29.5-5.1,30.4-4.9"/>
      <path class="cls-1" d="M66,37.5v.5s-.7.8-1.7,1.7c-2.4,2.1-5.1,9.3-5.1,9.3l-14.6,34.4c-6.6,12.8-16,15.2-16,15.2,0,0-10.7,2.8-17.8-.6-4-1.7-7.5-4.7-9.1-8.7-3.6-9.4-.6-12.9-.6-12.9,0,0,1.5,12.1,4.7,14.7,0,0,2.4,2.3,7.7,1.7,5.7-.3,9.5-11.4,9.5-11.4l6.7-14.7,10.2-23s1.4-2.8,1.3-3.5c-.1-.4-.9-1.7-.9-1.7l-.4-.9h26Z"/>
      <path class="cls-1" d="M21.3,79.7c0,5.9-4.5,10.2-10.3,10.6-3.2.2-6.1-1.5-8-4-1.4-1.8-2.4-4.3-2.4-6.8,0-5.9,4.7-10.4,10.4-10.4s10.3,4.7,10.3,10.6"/>
      <path class="cls-1" d="M105.4,41s-23.4,53.8-23.4,54.2c0,.7.4,1.2.4,1.2,0,0,1.8,2,1.8,2.7,0,0-30.1.3-30.2.2-.7-.5,2.8-3,3.3-3.5.5-.5.9-1.2,1.2-1.7.4-.6,22.3-52.5,22.4-53.1,0-.2-.9-1.7-.9-1.7,0,0-.8-1.3-.6-1.7h28.9c.1.2-2.8,3.4-2.8,3.4"/>
      <path class="cls-1" d="M142.4,38.7c-.3.4-25.6,16.6-26,17.3-.4.8-1.1,39.8-1.1,39.8l1.6,2s.8,1,.7,1.2-29.1.1-29.1.1c0,0-.3-.2.6-1.2.8-.8,2.1-2.2,2.1-2.2l.6-28.4s28.4-17.1,28.6-17.6-4.1-10.8-4.1-10.8c-.4-.9,0-1.3,0-1.3,0,0,26.3,0,26.9,0s-.4.6-.7,1"/>
    </g>
  </g>
</svg>