<?xml version="1.0" encoding="UTF-8"?>
<svg id="_レイヤー_2" data-name="レイヤー 2" xmlns="http://www.w3.org/2000/svg" viewBox="0 0 544.4 121.5">
  <defs>
    <style>
      .cls-1 {
        fill: #3d62ad;
        font-family: NotoSansJP-Bold, 'Noto Sans JP';
        font-size: 30px;
        font-weight: 700;
      }

      .cls-2 {
        fill: #fff;
      }

      .cls-3 {
        fill: none;
        stroke: #3d62ad;
        stroke-width: .7px;
      }

      .cls-4 {
        letter-spacing: -.5em;
      }

      .cls-5 {
        letter-spacing: 0em;
      }
    </style>
  </defs>
  <g id="_レイヤー_1-2" data-name="レイヤー 1">
    <g>
      <path class="cls-2" d="M502.5,41.1c-3.7-15.4-15.2-39.1-50.3-39.1H54.2S2.1,2.1,2.1,54.2v2.3s0,52.1,52.1,52.1h398s44.8,0,51.3-41.6l34.6-25.7h-35.6Z"/>
      <path class="cls-3" d="M503.8,39.4c-4-15.2-16-39.1-51.6-39.1H54.2C53.6.3.3,1,.3,54.2v2.3c0,.5.6,53.8,53.8,53.8h398c.5,0,11.7,0,23.9-5.3,11.2-4.9,25.3-15.2,29-37,11.3-8.4,22.7-16.9,34-25.3l4.2-3.1h-5.2c-11.4,0-22.9,0-34.3-.1Z"/>
      <path class="cls-3" d="M500.8,41.6c-4.2-17.2-16-37.7-48.6-37.7H54.2c-.1,0-12.9,0-25.4,6.4C12.2,18.5,3.8,33.3,3.8,54.2v2.3c0,.1,0,12.9,6.4,25.4,8.3,16.6,23.1,25,44,25h398c.1,0,11.1,0,22.6-5.1,15.3-6.7,24.4-18.5,26.9-35v-.7c.1,0,.7-.4.7-.4,10.1-7.5,20.3-15.1,30.4-22.6-10.1,0-20.3,0-30.4,0h-1.4s-.3-1.3-.3-1.3Z"/>
    </g>
    <text class="cls-1" transform="translate(87.5 50.1)"><tspan class="cls-5" x="0" y="0">犬に関する知識を高め</tspan><tspan class="cls-4" x="315" y="0">、</tspan><tspan class="cls-5"><tspan x="-7.5" y="40">犬質の向上に役立てます</tspan></tspan></text>
  </g>
</svg>