<?xml version="1.0" encoding="UTF-8"?>
<svg id="_レイヤー_2" data-name="レイヤー 2" xmlns="http://www.w3.org/2000/svg" viewBox="0 0 511.8 119.2">
  <defs>
    <style>
      .cls-1 {
        fill: #fff;
      }

      .cls-2 {
        fill: none;
        stroke: #3d62ad;
        stroke-width: .7px;
      }

      .cls-3 {
        fill: #3d62ad;
        font-family: NotoSansJP-Bold, 'Noto Sans JP';
        font-size: 30px;
        font-weight: 700;
        letter-spacing: 0em;
      }
    </style>
  </defs>
  <g id="_レイヤー_1-2" data-name="レイヤー 1">
    <path class="cls-1" d="M469.9,44.9c-2.8-15-13-42.8-51.1-42.8H54.2S2.1,2.1,2.1,54.2v2.3s0,52.1,52.1,52.1h364.6s41.1,0,50.3-36.5l36.5-27.1h-35.7Z"/>
    <path class="cls-2" d="M471.3,43.2c-2.9-14-13.6-42.8-52.5-42.8H54.2C53.6.3.3,1,.3,54.2v2.3c0,.5.6,53.8,53.8,53.8h364.6c.4,0,42.1-.4,51.8-37.2,12-8.9,24-17.8,36-26.7l4.2-3.1h-5.2s-34.2-.1-34.2-.1Z"/>
    <path class="cls-2" d="M468.2,45.2c-2.8-15.5-13-41.4-49.4-41.4H54.2c-.1,0-12.9,0-25.4,6.4C12.2,18.5,3.8,33.3,3.8,54.2v2.3c0,.1,0,12.9,6.4,25.4,8.3,16.6,23.1,25,44,25h364.6c0,0,10.2,0,21.1-4.5,14.5-5.8,23.8-16.2,27.4-30.7l.2-.6.5-.4c10.8-8,21.5-16,32.3-24-10.1,0-20.3,0-30.4,0h-1.4s-.3-1.4-.3-1.4Z"/>
    <text class="cls-3" transform="translate(83.5 47.8)"><tspan x="0" y="0">ドッグショー・競技会</tspan><tspan x="-31.5" y="40">などの開催を行っています</tspan></text>
  </g>
</svg>