<?xml version="1.0" encoding="UTF-8"?>
<svg id="_レイヤー_2" data-name="レイヤー 2" xmlns="http://www.w3.org/2000/svg" xmlns:xlink="http://www.w3.org/1999/xlink" viewBox="0 0 571.9 118.7">
  <defs>
    <style>
      .cls-1, .cls-2 {
        fill: none;
      }

      .cls-3 {
        fill: #fff;
      }

      .cls-2 {
        stroke: #3d62ad;
        stroke-width: .7px;
      }

      .cls-4 {
        fill: #3d62ad;
        font-family: NotoSansJP-Bold, 'Noto Sans JP';
        font-size: 30px;
        font-weight: 700;
        letter-spacing: 0em;
      }

      .cls-5 {
        clip-path: url(#clippath);
      }
    </style>
    <clipPath id="clippath">
      <rect class="cls-1" y="0" width="571.9" height="110.7"/>
    </clipPath>
  </defs>
  <g id="_レイヤー_1-2" data-name="レイヤー 1">
    <g>
      <g class="cls-5">
        <path class="cls-3" d="M569.8,56.5v-2.3s0-52.1-52.1-52.1H89.7s-43,0-50.9,39.1H6.3c0,.1,32.3,24.1,32.3,24.1,2.6,14.8,12.6,43.4,51.2,43.4h428s52.1,0,52.1-52.1"/>
        <path class="cls-2" d="M571.5,56.5v-2.3c0-.5-.6-53.8-53.8-53.8H89.7c-.4,0-43.5.5-52.3,39.1-10.4,0-20.8,0-31.2,0H1s4.2,3.1,4.2,3.1l31.7,23.6c2.6,13.8,12.8,44.1,52.8,44.1h428c.5,0,53.8-.6,53.8-53.8Z"/>
        <path class="cls-2" d="M568.1,56.5v-2.3c0-.1,0-12.9-6.4-25.4-8.3-16.6-23.1-25-44-25H89.7c-.1,0-10.6,0-21.9,4.8-14.9,6.3-24.1,17.3-27.2,32.9l-.3,1.4h-1.4c-9.1,0-18.2,0-27.4,0,9.4,7,18.7,13.9,28.1,20.9l.6.4v.7c2.9,15.7,13,41.9,49.6,41.9h428c.1,0,12.9,0,25.4-6.4,16.6-8.3,25-23.1,25-44Z"/>
      </g>
      <text class="cls-4" transform="translate(182.4 47.4)"><tspan x="0" y="0">各種コンクールと</tspan><tspan x="-94.5" y="40">犬を通した社会への貢献の実施</tspan></text>
    </g>
  </g>
</svg>