<?xml version="1.0" encoding="UTF-8"?>
<svg id="_レイヤー_2" data-name="レイヤー 2" xmlns="http://www.w3.org/2000/svg" viewBox="0 0 545 120.3">
  <defs>
    <style>
      .cls-1 {
        fill: #3d62ad;
        font-family: NotoSansJP-Bold, 'Noto Sans JP';
        font-size: 30px;
        font-weight: 700;
      }

      .cls-2 {
        fill: #fff;
      }

      .cls-3 {
        fill: none;
        stroke: #3d62ad;
        stroke-width: .7px;
      }

      .cls-4 {
        letter-spacing: -.5em;
      }

      .cls-5 {
        letter-spacing: 0em;
      }
    </style>
  </defs>
  <g id="_レイヤー_1-2" data-name="レイヤー 1">
    <path class="cls-2" d="M542.9,56.5v-2.3s0-52.1-52.1-52.1H92.8s-43.7,0-51,40H6.3c0,.1,36.1,27,36.1,27,3.6,15.4,14.9,39.5,50.4,39.5h398s52.1,0,52.1-52.1"/>
    <path class="cls-3" d="M544.7,56.5v-2.3c0-.5-.6-53.8-53.8-53.8H92.8c-.4,0-44.2.5-52.5,40-11.4,0-22.7,0-34.1.1H1s4.2,3.1,4.2,3.1c11.9,8.8,23.8,17.6,35.6,26.5,3.7,15.3,15.5,40.3,51.9,40.3h398c.5,0,53.8-.6,53.8-53.8Z"/>
    <path class="cls-3" d="M541.2,56.5v-2.3c0-.1,0-12.9-6.4-25.4-8.3-16.6-23.1-25-44-25H92.8c-.1,0-10.8,0-22.2,4.9-15.1,6.4-24.2,17.7-27.1,33.7l-.3,1.4h-1.4c-10.1,0-20.2,0-30.3.1,10.6,7.9,21.3,15.8,31.9,23.7l.5.4v.6c3.5,14.3,14.3,38.2,48.8,38.2h398c.1,0,12.9,0,25.4-6.4,16.6-8.3,25-23.1,25-44Z"/>
    <text class="cls-1" transform="translate(116.5 49)"><tspan class="cls-5" x="0" y="0">純粋犬種の犬籍登録をし</tspan><tspan class="cls-4" x="346.5" y="0">、</tspan><tspan class="cls-5"><tspan x="-23.2" y="40">血統証明書の発行を行います</tspan></tspan></text>
  </g>
</svg>