<?xml version="1.0" encoding="UTF-8"?>
<svg id="_レイヤー_1" data-name="レイヤー_1" xmlns="http://www.w3.org/2000/svg" version="1.1" viewBox="0 0 22 22">
  <!-- Generator: Adobe Illustrator 29.3.1, SVG Export Plug-In . SVG Version: 2.1.0 Build 151)  -->
  <defs>
    <style>
      .st0 {
        fill: none;
      }

      .st1 {
        fill: #c83030;
      }
    </style>
  </defs>
  <polygon class="st0" points="9.5 2 2 2 2 20 20 20 20 13 20 9.5 20 6 20 3.4 11.7 11.7 10.3 10.3 18.6 2 16.5 2 13 2 9.5 2"/>
  <polygon class="st1" points="20 20 2 20 2 2 9.5 2 9.5 0 0 0 0 22 22 22 22 13 20 13 20 20"/>
  <polygon class="st1" points="11.7 11.7 20 3.4 20 2 18.6 2 10.3 10.3 11.7 11.7"/>
  <polygon class="st1" points="16.5 0 16.5 2 18.6 2 20 .6 20 .5 20.1 .5 20.3 .3 20.5 .5 22 .5 22 0 16.5 0"/>
  <rect class="st1" x="13" width="3.5" height="2"/>
  <polygon class="st1" points="20.3 .3 20.1 .5 20.5 .5 20.3 .3"/>
  <polygon class="st1" points="20 .6 18.6 2 20 2 20 .6"/>
  <polygon class="st1" points="20 3.4 20 6 22 6 22 2 21.4 2 20 3.4"/>
  <rect class="st1" x="20" y="6" width="2" height="3.5"/>
  <polygon class="st1" points="20 3.4 21.4 2 20 2 20 3.4"/>
  <polygon class="st1" points="20 .5 20 .6 20.1 .5 20 .5"/>
  <polygon class="st1" points="21.7 1.7 21.4 2 22 2 22 .5 20.5 .5 21.7 1.7"/>
  <polygon class="st1" points="21.4 2 21.7 1.7 20.5 .5 20.1 .5 20 .6 20 2 21.4 2"/>
</svg>