<svg xmlns="http://www.w3.org/2000/svg" width="25.501" height="33.258" viewBox="0 0 25.501 33.258"><path d="M61.992,1.409c-2.285,1.482-2.734,6.115-1.871,9.891A34.1,34.1,0,0,0,64.63,21.9a35.419,35.419,0,0,0,7.838,8.44c3.1,2.328,7.509,3.807,9.794,2.325A11.573,11.573,0,0,0,85.213,29.5l-1.228-1.893L80.609,22.4c-.251-.387-1.824-.033-2.623.419a7.61,7.61,0,0,0-2.071,2.25c-.739.427-1.358,0-2.652-.594-1.59-.732-3.378-3-4.8-5.063-1.3-2.139-2.646-4.7-2.665-6.448-.016-1.424-.152-2.163.539-2.664a7.61,7.61,0,0,0,2.9-.973c.739-.545,1.7-1.837,1.453-2.224L67.312,1.9,66.085.005A11.574,11.574,0,0,0,61.992,1.409Z" transform="translate(-59.712 0.001)" fill="#0a6934"/></svg>