<svg xmlns="http://www.w3.org/2000/svg" xmlns:xlink="http://www.w3.org/1999/xlink" width="63.849" height="60.866" viewBox="0 0 63.849 60.866"><defs><clipPath id="a"><rect width="63.849" height="60.866" transform="translate(-23 -2)" fill="none"/></clipPath></defs><g transform="translate(23 2)"><g clip-path="url(#a)"><rect width="37" height="33" transform="translate(0 21.665)" fill="#fff"/><path d="M186.738,193.921H153.032a3.008,3.008,0,0,1-3-3V170.434a.777.777,0,1,1,1.555,0v20.482a1.452,1.452,0,0,0,1.45,1.45h33.706a1.452,1.452,0,0,0,1.45-1.45V161.258a1.452,1.452,0,0,0-1.45-1.45H163.027a.777.777,0,0,1,0-1.555h23.711a3.008,3.008,0,0,1,3,3v29.658a3.008,3.008,0,0,1-3,3" transform="translate(-151.242 -137.401)" fill="#fff"/><path d="M240.364,172.065s-31.079.047-31.226,0c3.93-2.525,5.119-7.639,5.119-7.639h23.964a2.143,2.143,0,0,1,2.143,2.143Z" transform="translate(-202.693 -142.774)" fill="#f6d25e"/><path d="M16.818,33.636A16.818,16.818,0,1,1,33.636,16.818,16.837,16.837,0,0,1,16.818,33.636m0-32.081" transform="translate(-20.652 0.347)" fill="#fff" stroke="#373737" stroke-width="1"/><path d="M16.818,33.636A16.818,16.818,0,1,1,33.636,16.818,16.837,16.837,0,0,1,16.818,33.636m0-32.081A15.263,15.263,0,1,0,32.081,16.818,15.281,15.281,0,0,0,16.818,1.555" transform="translate(-20.652 0.347)" fill="#373737" stroke="#373737" stroke-width="1"/><path d="M131.738,69.436h-7.2a.777.777,0,0,1-.777-.777V60.094a.777.777,0,1,1,1.555,0v7.787h6.424a.777.777,0,0,1,0,1.555" transform="translate(-128.377 -51.284)" fill="#373737" stroke="#373737" stroke-width="1"/><path d="M186.738,193.921H153.032a3.008,3.008,0,0,1-3-3V170.434a.777.777,0,1,1,1.555,0v20.482a1.452,1.452,0,0,0,1.45,1.45h33.706a1.452,1.452,0,0,0,1.45-1.45V161.258a1.452,1.452,0,0,0-1.45-1.45H163.027a.777.777,0,0,1,0-1.555h23.711a3.008,3.008,0,0,1,3,3v29.658a3.008,3.008,0,0,1-3,3" transform="translate(-151.242 -137.401)" fill="#373737" stroke="#373737" stroke-width="1"/><path d="M235.881,219.3H205.047a.777.777,0,0,1,0-1.555h30.834a.777.777,0,0,1,0,1.555" transform="translate(-198.457 -189.188)" fill="#373737" stroke="#373737" stroke-width="1"/><path d="M298.069,133.316a.778.778,0,0,1-.777-.777v-8.26a.777.777,0,0,1,1.555,0v8.26a.778.778,0,0,1-.777.777" transform="translate(-279.426 -107.153)" fill="#373737" stroke="#373737" stroke-width="1"/><path d="M377.444,133.316a.778.778,0,0,1-.777-.777v-8.26a.777.777,0,1,1,1.555,0v8.26a.778.778,0,0,1-.777.777" transform="translate(-348.516 -107.153)" fill="#373737" stroke="#373737" stroke-width="1"/><path d="M207.751,272.6a1.226,1.226,0,1,1,1.226-1.226,1.227,1.227,0,0,1-1.226,1.226m0-1.555a.329.329,0,1,0,.329.329.33.33,0,0,0-.329-.329" transform="translate(-200.42 -234.8)" fill="#373737" stroke="#373737" stroke-linecap="round" stroke-linejoin="bevel" stroke-width="1"/><path d="M252.033,272.6a1.226,1.226,0,1,1,1.226-1.226,1.227,1.227,0,0,1-1.226,1.226m0-1.555a.329.329,0,1,0,.329.329.33.33,0,0,0-.329-.329" transform="translate(-238.963 -234.8)" fill="#373737" stroke="#373737" stroke-linecap="round" stroke-linejoin="bevel" stroke-width="1"/><path d="M296.316,272.6a1.226,1.226,0,1,1,1.226-1.226,1.227,1.227,0,0,1-1.226,1.226m0-1.555a.329.329,0,1,0,.329.329.33.33,0,0,0-.329-.329" transform="translate(-277.508 -234.8)" fill="#373737" stroke="#373737" stroke-linecap="round" stroke-linejoin="bevel" stroke-width="1"/><path d="M340.6,272.6a1.226,1.226,0,1,1,1.226-1.226A1.227,1.227,0,0,1,340.6,272.6m0-1.555a.329.329,0,1,0,.329.329.33.33,0,0,0-.329-.329" transform="translate(-316.053 -234.8)" fill="#373737" stroke="#373737" stroke-linecap="round" stroke-linejoin="bevel" stroke-width="1"/><path d="M384.88,272.6a1.226,1.226,0,1,1,1.226-1.226,1.227,1.227,0,0,1-1.226,1.226m0-1.555a.329.329,0,1,0,.329.329.33.33,0,0,0-.329-.329" transform="translate(-354.598 -234.8)" fill="#373737" stroke="#373737" stroke-linecap="round" stroke-linejoin="bevel" stroke-width="1"/><path d="M207.751,321.77a1.226,1.226,0,1,1,1.226-1.226,1.227,1.227,0,0,1-1.226,1.226m0-1.555a.329.329,0,1,0,.329.329.33.33,0,0,0-.329-.329" transform="translate(-200.42 -277.599)" fill="#373737" stroke="#373737" stroke-linecap="round" stroke-linejoin="bevel" stroke-width="1"/><path d="M252.033,321.77a1.226,1.226,0,1,1,1.226-1.226,1.227,1.227,0,0,1-1.226,1.226m0-1.555a.329.329,0,1,0,.329.329.33.33,0,0,0-.329-.329" transform="translate(-238.963 -277.599)" fill="#373737" stroke="#373737" stroke-linecap="round" stroke-linejoin="bevel" stroke-width="1"/><path d="M296.316,321.77a1.226,1.226,0,1,1,1.226-1.226,1.227,1.227,0,0,1-1.226,1.226m0-1.555a.329.329,0,1,0,.329.329.33.33,0,0,0-.329-.329" transform="translate(-277.508 -277.599)" fill="#373737" stroke="#373737" stroke-linecap="round" stroke-linejoin="bevel" stroke-width="1"/><path d="M340.6,321.77a1.226,1.226,0,1,1,1.226-1.226,1.227,1.227,0,0,1-1.226,1.226m0-1.555a.329.329,0,1,0,.329.329.33.33,0,0,0-.329-.329" transform="translate(-316.053 -277.599)" fill="#373737" stroke="#373737" stroke-linecap="round" stroke-linejoin="bevel" stroke-width="1"/><path d="M384.88,321.77a1.226,1.226,0,1,1,1.226-1.226,1.227,1.227,0,0,1-1.226,1.226m0-1.555a.329.329,0,1,0,.329.329.33.33,0,0,0-.329-.329" transform="translate(-354.598 -277.599)" fill="#373737" stroke="#373737" stroke-linecap="round" stroke-linejoin="bevel" stroke-width="1"/><path d="M207.751,370.938a1.226,1.226,0,1,1,1.226-1.226,1.227,1.227,0,0,1-1.226,1.226m0-1.555a.329.329,0,1,0,.329.329.33.33,0,0,0-.329-.329" transform="translate(-200.42 -320.396)" fill="#373737" stroke="#373737" stroke-linecap="round" stroke-linejoin="bevel" stroke-width="1"/><path d="M252.033,370.938a1.226,1.226,0,1,1,1.226-1.226,1.227,1.227,0,0,1-1.226,1.226m0-1.555a.329.329,0,1,0,.329.329.33.33,0,0,0-.329-.329" transform="translate(-238.963 -320.396)" fill="#373737" stroke="#373737" stroke-linecap="round" stroke-linejoin="bevel" stroke-width="1"/><path d="M296.316,370.938a1.226,1.226,0,1,1,1.226-1.226,1.227,1.227,0,0,1-1.226,1.226m0-1.555a.329.329,0,1,0,.329.329.33.33,0,0,0-.329-.329" transform="translate(-277.508 -320.396)" fill="#373737" stroke="#373737" stroke-linecap="round" stroke-linejoin="bevel" stroke-width="1"/><path d="M340.6,370.938a1.226,1.226,0,1,1,1.226-1.226,1.227,1.227,0,0,1-1.226,1.226m0-1.555a.329.329,0,1,0,.329.329.33.33,0,0,0-.329-.329" transform="translate(-316.053 -320.396)" fill="#373737" stroke="#373737" stroke-linecap="round" stroke-linejoin="bevel" stroke-width="1"/><path d="M384.88,370.938a1.226,1.226,0,1,1,1.226-1.226,1.227,1.227,0,0,1-1.226,1.226m0-1.555a.329.329,0,1,0,.329.329.33.33,0,0,0-.329-.329" transform="translate(-354.598 -320.396)" fill="#373737" stroke="#373737" stroke-linecap="round" stroke-linejoin="bevel" stroke-width="1"/></g></g></svg>