<svg xmlns="http://www.w3.org/2000/svg" xmlns:xlink="http://www.w3.org/1999/xlink" width="46.901" height="40.875" viewBox="0 0 46.901 40.875">
  <defs>
    <clipPath id="a">
      <rect width="27.868" height="33.68" transform="translate(-2 -2)" fill="none" stroke="#707070" stroke-width="1.5" />
    </clipPath>
    <clipPath id="b">
      <rect width="28.868" height="30.68" transform="translate(-1)" fill="none" />
    </clipPath>
    <clipPath id="c">
      <rect width="30.868" height="40.875" fill="none" />
    </clipPath>
  </defs>
  <g transform="translate(-20.878 -31.896)">
    <rect width="20.48" height="28.933" transform="translate(23.188 34.53)" fill="#edad23" />
    <g transform="translate(22.878 34.22)">
      <g transform="translate(0 0)" clip-path="url(#a)">
        <path d="M-.65-.65H21.129V29.526H-.65ZM19.829.65H.65V28.226H19.829Z" transform="translate(0.31 0.309)" />
        <path d="M18.758,4.25H2.462a.65.65,0,0,1-.533-.277L.08,1.33A.65.65,0,1,1,1.145.585L2.8,2.95H18.424l1.7-2.372a.65.65,0,0,1,1.056.759l-1.9,2.642A.65.65,0,0,1,18.758,4.25Z" transform="translate(-0.138 -0.217)" />
      </g>
    </g>
    <path d="M0,23.983a.65.65,0,0,1-.65-.65V0A.65.65,0,0,1,0-.65.65.65,0,0,1,.65,0V23.333A.65.65,0,0,1,0,23.983Z" transform="translate(33.374 40.13)" />
    <rect width="20.488" height="26.102" transform="translate(38.102 40.356)" fill="#fff" />
    <g transform="translate(36.911 38.091)">
      <g transform="translate(0 0)" clip-path="url(#b)">
        <path d="M0-.65H20.488a.65.65,0,0,1,.65.65V26.051a.65.65,0,0,1-.65.65H0a.65.65,0,0,1-.65-.65V0A.65.65,0,0,1,0-.65ZM19.838.65H.65V25.4H19.838Z" transform="translate(1.191 2.319)" />
      </g>
    </g>
    <path d="M13.7.65H0A.65.65,0,0,1-.65,0,.65.65,0,0,1,0-.65H13.7a.65.65,0,0,1,.65.65A.65.65,0,0,1,13.7.65Z" transform="translate(41.495 45.152)" />
    <path d="M10.391.65H0A.65.65,0,0,1-.65,0,.65.65,0,0,1,0-.65H10.391a.65.65,0,0,1,.65.65A.65.65,0,0,1,10.391.65Z" transform="translate(42.715 50.878)" />
    <path d="M8.031.65H0A.65.65,0,0,1-.65,0,.65.65,0,0,1,0-.65H8.031a.65.65,0,0,1,.65.65A.65.65,0,0,1,8.031.65Z" transform="translate(42.715 61.174)" />
    <path d="M9.449.65H0A.65.65,0,0,1-.65,0,.65.65,0,0,1,0-.65H9.449A.65.65,0,0,1,10.1,0,.65.65,0,0,1,9.449.65Z" transform="translate(45.131 55.985)" />
    <g transform="translate(36.911 31.896)">
      <g transform="translate(0 0)" clip-path="url(#c)">
        <path d="M24.227,100.31,32.49,89.537a.641.641,0,0,0-.119-.9l-.765-.584a.643.643,0,0,0-.9.119L22.442,98.947Z" transform="translate(-5.063 -66.434)" fill="#edad23" />
        <path d="M24.227,100.31,32.49,89.537a.641.641,0,0,0-.119-.9l-.765-.584a.643.643,0,0,0-.9.119L22.442,98.947l1.785,1.363m0,1.3a1.294,1.294,0,0,1-.788-.267L21.653,99.98a1.3,1.3,0,0,1-.242-1.824l8.263-10.774a1.93,1.93,0,0,1,1.542-.76,1.953,1.953,0,0,1,1.18.4l.764.584a1.941,1.941,0,0,1,.363,2.722L25.258,101.1A1.3,1.3,0,0,1,24.226,101.61Z" transform="translate(-5.063 -66.434)" />
        <path d="M22.368,105.378,20.4,106.1l.181-2.081,1.388-1.81,1.785,1.363Z" transform="translate(-4.603 -69.678)" fill="#fff" />
        <path d="M20.4,106.1l1.966-.718,1.388-1.81L21.971,102.2l-1.388,1.81L20.4,106.1m0,1.3a1.3,1.3,0,0,1-1.3-1.413l.181-2.081a1.3,1.3,0,0,1,.263-.678l1.388-1.81a1.3,1.3,0,0,1,1.821-.242l1.785,1.363a1.3,1.3,0,0,1,.243,1.824l-1.388,1.81a1.3,1.3,0,0,1-.586.43l-1.966.718A1.3,1.3,0,0,1,20.4,107.4Z" transform="translate(-4.603 -69.678)" />
        <path d="M0,2.389a.647.647,0,0,1-.4-.134.65.65,0,0,1-.12-.911L.818-.4a.65.65,0,0,1,.911-.12A.65.65,0,0,1,1.849.4L.516,2.134A.649.649,0,0,1,0,2.389Z" transform="translate(15.828 34.611)" />
        <path d="M22.487,104.9a.419.419,0,1,1-.078-.587.42.42,0,0,1,.078.587" transform="translate(-4.904 -70.138)" />
        <path d="M1.827,2.046a.647.647,0,0,1-.394-.133L-.395.517A.65.65,0,0,1-.517-.395.65.65,0,0,1,.395-.517L2.222.879a.65.65,0,0,1-.4,1.167Z" transform="translate(25.164 22.361)" />
      </g>
    </g>
  </g>
</svg>