<svg xmlns="http://www.w3.org/2000/svg" xmlns:xlink="http://www.w3.org/1999/xlink" width="67.078" height="55.577" viewBox="0 0 67.078 55.577"><defs><clipPath id="a"><rect width="67.078" height="55.577" transform="translate(-3 -3)" fill="none" stroke="#373737" stroke-width="1"/></clipPath></defs><g transform="translate(-506.961 -4135.875)"><path d="M-12975.162-6878.421l4.393-8,14.844-.926,5.4,8.928h12.5l2.069,6.014v28.688l-3.659,2.367h-51.145l-4.068-4.376.809-30.676,3.26-3.582Z" transform="translate(13506 11028)" fill="#fff"/><circle cx="11" cy="11" r="11" transform="translate(532 4156)" fill="#f6d25e"/><g transform="translate(509.961 4138.875)"><g clip-path="url(#a)"><path d="M6.194,49.577H54.885a6.2,6.2,0,0,0,6.194-6.193V14.247a6.2,6.2,0,0,0-6.194-6.194H45.9l-2.15-4.778A5.562,5.562,0,0,0,38.682,0H28.23a5.573,5.573,0,0,0-5.036,3.215L20.947,8.053H6.194A6.2,6.2,0,0,0,0,14.247V43.383a6.2,6.2,0,0,0,6.194,6.193m-3.24-35.33a3.243,3.243,0,0,1,3.24-3.24h15.7a1.477,1.477,0,0,0,1.34-.855l2.644-5.694A2.609,2.609,0,0,1,28.23,2.954H38.682a2.6,2.6,0,0,1,2.369,1.533l2.542,5.649a1.477,1.477,0,0,0,1.347.871h9.944a3.243,3.243,0,0,1,3.24,3.24V43.383a3.243,3.243,0,0,1-3.24,3.24H6.194a3.243,3.243,0,0,1-3.24-3.24Z" fill="#373737" stroke="#373737" stroke-width="1"/><path d="M47.868,21.539h3.116a1.477,1.477,0,0,0,0-2.954H47.868a1.477,1.477,0,0,0,0,2.954" transform="translate(-36.324 -14.552)" fill="#303030" stroke="#373737" stroke-width="1"/><path d="M91.025,81.378A17.522,17.522,0,1,0,73.5,63.856,17.542,17.542,0,0,0,91.025,81.378m0-32.09A14.568,14.568,0,1,1,76.457,63.856,14.585,14.585,0,0,1,91.025,49.288" transform="translate(-57.552 -36.279)" fill="#373737" stroke="#373737" stroke-width="1"/><path d="M111.531,96.2A11.838,11.838,0,1,0,99.693,84.362,11.852,11.852,0,0,0,111.531,96.2m0-20.723a8.884,8.884,0,1,1-8.884,8.884,8.895,8.895,0,0,1,8.884-8.884" transform="translate(-78.058 -56.785)" fill="#373737" stroke="#373737" stroke-width="1"/></g></g></g></svg>