<svg xmlns="http://www.w3.org/2000/svg" xmlns:xlink="http://www.w3.org/1999/xlink" width="53.733" height="49.855" viewBox="0 0 53.733 49.855"><defs><clipPath id="a"><rect width="53.733" height="49.855" fill="none"/></clipPath></defs><g transform="translate(20.996)"><g transform="translate(-20.996)" clip-path="url(#a)"><path d="M47.747,11.78H21.858L11.781,21.741V59.553H47.747V50.129h13.7a1.916,1.916,0,0,0,1.984-1.94V34.247s.133-1.757-2.313-1.757H47.747Z" transform="translate(-10.74 -10.739)" fill="#fff"/><rect width="31.216" height="4.151" transform="translate(21.476 21.692)" fill="#f6d25e"/><path d="M33.969,35.01H25.708a1.041,1.041,0,0,1,0-2.082h7.22v-7.22a1.041,1.041,0,1,1,2.082,0v8.261a1.041,1.041,0,0,1-1.041,1.041" transform="translate(-22.487 -22.487)" fill="#333"/><path d="M59.5,453.717H25.709a1.041,1.041,0,0,1,0-2.082H58.454v-7.587a1.041,1.041,0,1,1,2.082,0v8.628a1.041,1.041,0,0,1-1.041,1.041" transform="translate(-22.488 -403.862)" fill="#333"/><path d="M1.041,289.007A1.041,1.041,0,0,1,0,287.966l.006-35.358a1.041,1.041,0,0,1,2.082,0l-.006,35.358a1.041,1.041,0,0,1-1.041,1.041" transform="translate(0 -239.152)" fill="#333"/><path d="M37.007,22.561a1.041,1.041,0,0,1-1.041-1.041V2.082H11.546L2.082,11.436v3.184a1.041,1.041,0,1,1-2.082,0V11a1.041,1.041,0,0,1,.309-.74L10.386.3a1.04,1.04,0,0,1,.732-.3H37.007a1.041,1.041,0,0,1,1.041,1.041V21.52a1.041,1.041,0,0,1-1.041,1.041" fill="#333"/><path d="M261.708,253.364H234.124a2.86,2.86,0,0,1-2.857-2.857V236.565a2.86,2.86,0,0,1,2.857-2.857h27.583a2.86,2.86,0,0,1,2.857,2.857v13.942a2.86,2.86,0,0,1-2.857,2.857M234.124,235.79a.776.776,0,0,0-.775.775v13.942a.776.776,0,0,0,.775.775h27.583a.776.776,0,0,0,.775-.775V236.565a.776.776,0,0,0-.775-.775Z" transform="translate(-210.832 -213.057)" fill="#333"/><path d="M282.012,282.768H254.765a1.041,1.041,0,1,1,0-2.082h27.247a1.041,1.041,0,0,1,0,2.082" transform="translate(-231.304 -255.884)" fill="#333"/><path d="M99.275,179.719h-22.6a1.041,1.041,0,0,1,0-2.082h22.6a1.041,1.041,0,0,1,0,2.082" transform="translate(-68.951 -161.941)" fill="#333"/><path d="M86.043,243.81H76.674a1.041,1.041,0,1,1,0-2.082h9.369a1.041,1.041,0,0,1,0,2.082" transform="translate(-68.95 -220.368)" fill="#333"/><path d="M195.934,116.89H182.7a1.041,1.041,0,1,1,0-2.082h13.231a1.041,1.041,0,0,1,0,2.082" transform="translate(-165.61 -104.663)" fill="#333"/><path d="M86.043,307.9H76.674a1.041,1.041,0,1,1,0-2.082h9.369a1.041,1.041,0,0,1,0,2.082" transform="translate(-68.95 -278.798)" fill="#333"/><path d="M86.043,372H76.674a1.041,1.041,0,1,1,0-2.082h9.369a1.041,1.041,0,0,1,0,2.082" transform="translate(-68.95 -337.228)" fill="#333"/><path d="M86.043,436.084H76.674a1.041,1.041,0,1,1,0-2.082h9.369a1.041,1.041,0,0,1,0,2.082" transform="translate(-68.95 -395.653)" fill="#333"/><path d="M425.238,334.463H416.3a1.041,1.041,0,1,1,0-2.082h8.943a1.041,1.041,0,0,1,0,2.082" transform="translate(-378.561 -303.011)" fill="#333"/><path d="M425.238,375.194H416.3a1.041,1.041,0,1,1,0-2.082h8.943a1.041,1.041,0,0,1,0,2.082" transform="translate(-378.561 -340.143)" fill="#333"/><rect width="3.84" height="3.84" transform="translate(27.717 30.411)" fill="#333"/><path d="M306.781,338.3h-3.84a1.041,1.041,0,0,1-1.041-1.041v-3.84a1.041,1.041,0,0,1,1.041-1.041h3.84a1.041,1.041,0,0,1,1.041,1.041v3.84a1.041,1.041,0,0,1-1.041,1.041m-2.8-2.082h1.758v-1.758h-1.758Z" transform="translate(-275.224 -303.012)" fill="#333"/></g></g></svg>