<svg xmlns="http://www.w3.org/2000/svg" xmlns:xlink="http://www.w3.org/1999/xlink" width="75.19" height="81.517" viewBox="0 0 75.19 81.517"><defs><clipPath id="a"><rect width="75.19" height="81.517" fill="#373737"/></clipPath></defs><g transform="translate(-1218.405 -4126.834)"><path d="M-12434.936-6882.943l23.575-8.9,22.033,61.171-23.822,8.563Z" transform="translate(13656 11028)" fill="#fff"/><path d="M-12392.184-6860.408l5.424,3.487,22.257-38.053-5.529-3.163Z" transform="translate(13656 11028)" fill="#f6d25e"/><path d="M-12400-6839.852l7.724-3.877,3.131-8.257-4.617-3.973-6.982,7.464Z" transform="translate(13656 11028)" fill="#fff"/><g transform="translate(1218.405 4126.834)"><rect width="3.622" height="24.954" transform="translate(20.142 24.701) rotate(-20)" fill="#373737"/><rect width="3.622" height="24.954" transform="translate(18.411 41.498) rotate(-20)" fill="#373737"/><g clip-path="url(#a)"><path d="M43.467,107.217l1.869,5.135-19.341,7.04L5.139,62.092l19.341-7.04,12.337,33.9a23.8,23.8,0,0,1,1.917-2.019,4.635,4.635,0,0,1,.546-1.5l.319-.56L26.877,49.913,0,59.7l23.6,64.835,26.877-9.783L46.67,104.293a25.685,25.685,0,0,1-3.2,2.924" transform="translate(0 -43.014)" fill="#373737"/><path d="M262.761,49.839a2.046,2.046,0,0,0,1.1-.907L288.19,6.249a2.063,2.063,0,0,0-.753-2.81L281.955.275a2.063,2.063,0,0,0-2.81.753L254.812,43.71a2.046,2.046,0,0,0-.238,1.4,20.032,20.032,0,0,0-4.376,5.162c-4.125,7.144-2.328,15.9-2.328,15.9s8.484-2.824,12.609-9.969a20.044,20.044,0,0,0,2.282-6.37M279,7.612l3.563,2.057-16.954,29.9-3.563-2.057ZM256.177,57.181c-1.057-.47-2.41-.2-2.785-1.415a2.7,2.7,0,0,0-1.682-1.838,15.269,15.269,0,0,1,1.034-2.184,17.309,17.309,0,0,1,3.94-4.577l3.234,1.867a17.247,17.247,0,0,1-1.984,5.706,15.526,15.526,0,0,1-1.757,2.441" transform="translate(-213.274 0)" fill="#373737"/></g></g></g></svg>