<svg xmlns="http://www.w3.org/2000/svg" xmlns:xlink="http://www.w3.org/1999/xlink" width="22.529" height="22.689" viewBox="0 0 22.529 22.689"><defs><clipPath id="a"><rect width="22.529" height="22.689" fill="none"/></clipPath></defs><g transform="translate(-1374.002 -23.307)"><path d="M1374.524,42.961l6.826-6.558,2.625,2.662-6.985,6.393-1.8-.541Z" fill="#f6d25e"/><ellipse cx="7.725" cy="7.725" rx="7.725" ry="7.725" transform="translate(1380.079 24.539)" fill="#fff"/><g transform="translate(1374.002 23.307)"><g transform="translate(0 0)" clip-path="url(#a)"><path d="M.5,74.306a.638.638,0,0,0,.1.1c.813.81,1.76,1.682,2.963.925a10.885,10.885,0,0,0,1.491-1.358l4.979-4.682a8.946,8.946,0,0,1-1.072-.626L5.012,72.369c-.584.549-1.147,1.144-1.762,1.657-.291.243-.448.452-.91.3-.4-.132-.706-.571-1-.864-.536-.656.294-1.2.708-1.588L4.012,70.03c1.05-.987,2.067-2.062,3.155-3.021a8.93,8.93,0,0,1-.663-.967c-.094.094-.186.186-.278.271L3.6,68.784.876,71.344A2.007,2.007,0,0,0,.4,74.168a.621.621,0,0,0,.1.138" transform="translate(0 -52.928)" fill="#373737"/><path d="M28.348,14.08a8.922,8.922,0,0,0,.592.682,9.082,9.082,0,0,0,2.268,1.6A8.618,8.618,0,0,0,43.67,7.838a8.65,8.65,0,0,0-15.738-4.1,8.665,8.665,0,0,0-.247,9.376,8.946,8.946,0,0,0,.663.967M28.27,5.537A7.464,7.464,0,0,1,42.289,6.8a7.522,7.522,0,0,1-3.04,8.017,7.55,7.55,0,0,1-9.466-.9A7.557,7.557,0,0,1,28.27,5.537" transform="translate(-21.181 0)" fill="#373737"/><path d="M40.992,14.554c-.373.671.655,1.272,1.029.6a5.5,5.5,0,0,1,2.289-2.229c.679-.357.077-1.385-.6-1.029a6.632,6.632,0,0,0-2.716,2.656" transform="translate(-32.788 -9.476)" fill="#373737"/></g></g></g></svg>