<svg xmlns="http://www.w3.org/2000/svg" width="68" height="45" viewBox="0 0 68 45"><g transform="translate(-865 -3764)"><g transform="translate(865 3764)" fill="#fff" stroke="#373737" stroke-width="4"><rect width="68" height="45" rx="5" stroke="none"/><rect x="2" y="2" width="64" height="41" rx="3" fill="none"/></g><g transform="translate(910.5 3775.5) rotate(90)" fill="#f6d25e"><path d="M 18.53110885620117 17.50000190734863 L 3.468899011611938 17.50000190734863 C 3.217549085617065 17.50000190734863 3.089619159698486 17.34320259094238 3.035728931427002 17.24974250793457 C 2.981838941574097 17.15627288818359 2.910248994827271 16.96700286865234 3.036179065704346 16.74949264526367 L 10.56728935241699 3.741202116012573 C 10.69295883178711 3.524132251739502 10.89233875274658 3.491722106933594 10.99999904632568 3.491722106933594 C 11.10765933990479 3.491722106933594 11.30703926086426 3.524132251739502 11.43270874023438 3.741202116012573 L 18.96381950378418 16.74948310852051 C 19.08974838256836 16.96700286865234 19.01815986633301 17.15628242492676 18.96426963806152 17.24974250793457 C 18.91037940979004 17.34320259094238 18.78244972229004 17.50000190734863 18.53110885620117 17.50000190734863 Z" stroke="none"/><path d="M 10.99999904632568 5.987595558166504 L 5.203342437744141 16.00000190734863 L 16.79665565490723 16.00000190734863 L 10.99999904632568 5.987595558166504 M 10.99999904632568 1.991724014282227 C 11.67284107208252 1.991724014282227 12.34568405151367 2.324367523193359 12.73084926605225 2.989652633666992 L 20.26195907592773 15.99793243408203 C 21.03388977050781 17.33126258850098 20.07176971435547 19.00000190734863 18.53110885620117 19.00000190734863 L 3.468898773193359 19.00000190734863 C 1.928228378295898 19.00000190734863 0.9661083221435547 17.33126258850098 1.738039016723633 15.99793243408203 L 9.269148826599121 2.989652633666992 C 9.654314041137695 2.324367523193359 10.32715702056885 1.991724014282227 10.99999904632568 1.991724014282227 Z" stroke="none" fill="#373737"/></g></g></svg>