<svg xmlns="http://www.w3.org/2000/svg" xmlns:xlink="http://www.w3.org/1999/xlink" width="53.326" height="58.042" viewBox="0 0 53.326 58.042"><defs><clipPath id="a"><rect width="53.326" height="58.042" fill="#272e38"/></clipPath></defs><g transform="translate(-407.518 -498.826)"><path d="M-15401.061-13749.657l.731-4.651v-5.056l1.023-3.167,3.357-2.807h6.949l3.92-1.61,1.5,3.521-.791,3.063-3.771,3.465-1.725,5.038v4.3l.871,5.41-2.126,7.313-1.884,3.4-.855,8.846,3.994,1.642.871,2h-8.173v-5.261l-.787-1.32-5.576,2.937,3.206,2.393v1.252h-13.312l-4.072-3.645-1.228-5.205,2.139-7.045,7.746-6.388,4.717-3.812Z" transform="translate(15840.646 14270.683)" fill="#f6d25e"/><g transform="translate(407.518 498.826)"><g transform="translate(0 0)" clip-path="url(#a)"><path d="M45.656.327a.837.837,0,0,0-.987-.258C43.542.545,40.256,1.721,38.6,1.455l-.069-.011C36.359,1.1,31.274.282,28.947,6.91c-.1.288-.191.58-.265.868a11.449,11.449,0,0,0-.124,4.8c.34,2.531.634,4.717-4.189,9.593a50.129,50.129,0,0,1-6.462,5.422c-4.322,3.18-7.177,5.281-7.276,13.521a7.393,7.393,0,0,0,.4,2.356c-3.325.377-5.888-.126-7.446-1.478-1.306-1.134-1.95-2.921-1.911-5.311a.838.838,0,0,0-.824-.851H.839A.838.838,0,0,0,0,36.656c-.046,2.908.791,5.129,2.489,6.6a9.755,9.755,0,0,0,6.536,2.009,20.32,20.32,0,0,0,2.695-.194,10.732,10.732,0,0,0,4.44,4.446.837.837,0,0,0,.388.1H29.827a.838.838,0,0,0,.838-.852,3.667,3.667,0,0,0-2.61-3.151A21.186,21.186,0,0,0,31.389,43.4a18.743,18.743,0,0,1,.262,5.268.838.838,0,0,0,.831.943H40.9a.838.838,0,0,0,.838-.838c0-2.8-2.833-3.885-4.811-4.148a52.064,52.064,0,0,1,.762-8.426c1.26-1.731,4.618-8.7,3.408-15.525-1.087-6.1.788-9.336,4.163-12.57,2.924-2.8,1.538-6.314.4-7.782M44.1,6.9c-3.671,3.517-5.868,7.256-4.655,14.073,1.143,6.443-2.228,13.2-3.193,14.349a.838.838,0,0,0-.186.4c-.049.3-1.19,7.286-.719,9.833a.838.838,0,0,0,.792.685c.034,0,2.947.132,3.729,1.7H33.387a20.1,20.1,0,0,0-.71-6.337h0a14.388,14.388,0,0,0-1.216-2.952.838.838,0,1,0-1.465.814,12.415,12.415,0,0,1,.92,2.132A18.9,18.9,0,0,1,26.8,44.38a8.107,8.107,0,0,0-.82-6.738c-2.724-4.058-9.137-4.235-9.409-4.24a.838.838,0,0,0-.035,1.675c.058,0,5.822.168,8.055,3.5,1.165,1.739,1.183,4.109.054,7.044a.837.837,0,0,0-.05.178v0a.838.838,0,0,0-.011.157s0,.005,0,.008a.834.834,0,0,0,.054.27c0,.011.01.021.015.031l.011.023a.835.835,0,0,0,.062.11l.017.025a.839.839,0,0,0,.1.113l.01.009a.839.839,0,0,0,.1.081l.043.027a.833.833,0,0,0,.095.048c.011,0,.02.011.031.016l.013,0a.834.834,0,0,0,.123.035.808.808,0,0,0,.081.01l.04,0a4.337,4.337,0,0,1,3.207,1.161H16.76a8.589,8.589,0,0,1-4.454-6.8c.089-7.405,2.4-9.105,6.593-12.192a51.548,51.548,0,0,0,6.661-5.594c5.4-5.462,5.024-8.275,4.658-10.995a16.407,16.407,0,0,1-.182-1.943l2.9,4.581a1.826,1.826,0,0,0,1.4.854q.081.007.161.007a1.827,1.827,0,0,0,1.365-.61C37.3,13.658,40.069,9.391,34.9,4.05a.838.838,0,1,0-1.2,1.166c3.834,3.96,2.62,7.029.925,8.906a.164.164,0,0,1-.264-.023L30.4,7.856c.039-.128.081-.257.127-.388,1.864-5.309,5.4-4.743,7.739-4.369l.069.011c1.946.313,4.98-.718,6.334-1.236A3.917,3.917,0,0,1,44.1,6.9" transform="translate(3.161 4.212)" fill="#272e38" stroke="#373737" stroke-width="1"/></g></g></g></svg>