<svg xmlns="http://www.w3.org/2000/svg" xmlns:xlink="http://www.w3.org/1999/xlink" width="68" height="53" viewBox="0 0 68 53"><defs><clipPath id="a"><rect width="32.897" height="27.994" fill="#373737"/></clipPath></defs><g transform="translate(-865 -4139)"><g transform="translate(865 4139)" fill="#fff" stroke="#373737" stroke-width="4"><rect width="68" height="53" rx="5" stroke="none"/><rect x="2" y="2" width="64" height="49" rx="3" fill="none"/></g><circle cx="16.5" cy="16.5" r="16.5" transform="translate(883 4149)" fill="#f6d25e"/><g transform="translate(881.104 4153.595)"><g clip-path="url(#a)"><path d="M32.68,19.293,29.3,14.445a14.187,14.187,0,0,0,3.568-9.416V1.213A1.212,1.212,0,0,0,31.66,0H17.724a10.565,10.565,0,0,0-6.416,2.187L8.2,4.586,1.209,4.6A1.212,1.212,0,0,0,0,5.814V7.856A10.858,10.858,0,0,0,2.136,14.3a8.183,8.183,0,0,0,6.233,3.3l4.341.178v9.01a1.212,1.212,0,0,0,2.424,0V16.608A1.212,1.212,0,0,0,13.972,15.4l-5.5-.225A5.758,5.758,0,0,1,4.08,12.851a8.416,8.416,0,0,1-1.656-5V7.024l6.191-.014a1.21,1.21,0,0,0,.738-.252l3.435-2.65a8.129,8.129,0,0,1,4.936-1.683h1.3V2.415c.031,0,.061.009.093.009H30.447v2.6A11.841,11.841,0,0,1,19.835,16.791V7.633a1.208,1.208,0,0,0-1.119-1.2c-.031,0-.061-.009-.093-.009A1.212,1.212,0,0,0,17.41,7.633V18.065a1.212,1.212,0,0,0,1.212,1.212,14.178,14.178,0,0,0,8.907-3.139l3.16,4.539a1.212,1.212,0,1,0,1.99-1.385" fill="#373737"/><path d="M227.669,125.372a1.352,1.352,0,1,0,1.352,1.352,1.352,1.352,0,0,0-1.352-1.352" transform="translate(-213.095 -118.048)" fill="#373737"/></g></g></g></svg>