<svg xmlns="http://www.w3.org/2000/svg" xmlns:xlink="http://www.w3.org/1999/xlink" width="26" height="28" viewBox="0 0 26 28"><defs><clipPath id="a"><rect width="26" height="28" transform="translate(-1.157 -2.157)" fill="#373737"/></clipPath></defs><g transform="translate(-1257 -9.001)"><path d="M0,0H12.011L17,5.292V24H0Z" transform="translate(1259 11)" fill="#fff"/><g transform="translate(1258.453 10.873)"><g transform="translate(-0.296 0.284)" clip-path="url(#a)"><path d="M129.345,140A5.345,5.345,0,1,1,124,145.345,5.346,5.346,0,0,1,129.345,140" transform="translate(-111.775 -127.012)" fill="#f6d25e"/><path d="M12.217,24.434H1.145A1.147,1.147,0,0,1,0,23.289V1.145A1.147,1.147,0,0,1,1.145,0H12.217a.382.382,0,0,1,.27.112L17.45,5.075a.382.382,0,0,1,.112.27v5.727a.382.382,0,0,1-.764,0V5.5L12.059.764H1.145a.382.382,0,0,0-.382.382V23.289a.382.382,0,0,0,.382.382H12.217a.382.382,0,1,1,0,.764" transform="translate(0.39 -0.374)" fill="#373737"/><path d="M129.345,34.673h-4.581a.764.764,0,0,1-.764-.764V32.382a.382.382,0,1,1,.764,0v1.527h4.581a.382.382,0,0,1,0,.764" transform="translate(-111.775 -29.32)" fill="#373737"/><path d="M125.727,147.454a5.727,5.727,0,1,1,5.727-5.727,5.733,5.733,0,0,1-5.727,5.727m0-10.69a4.963,4.963,0,1,0,4.963,4.963,4.969,4.969,0,0,0-4.963-4.963" transform="translate(-108.157 -123.393)" fill="#373737"/><path d="M154.29,176.581a.382.382,0,0,1-.239-.084l-1.909-1.527a.382.382,0,0,1,.477-.6l1.591,1.273,2.439-3.484a.382.382,0,1,1,.626.438l-2.673,3.818a.383.383,0,0,1-.313.163" transform="translate(-137.102 -155.957)" fill="#373737"/><path d="M74.872,80.764h-6.49a.382.382,0,0,1,0-.764h6.49a.382.382,0,0,1,0,.764" transform="translate(-61.12 -72.738)" fill="#373737"/><path d="M74.872,112.764h-6.49a.382.382,0,0,1,0-.764h6.49a.382.382,0,1,1,0,.764" transform="translate(-61.12 -101.684)" fill="#373737"/><path d="M72.581,144.764h-4.2a.382.382,0,1,1,0-.764h4.2a.382.382,0,0,1,0,.764" transform="translate(-61.12 -130.63)" fill="#373737"/><path d="M71.054,176.764H68.382a.382.382,0,1,1,0-.764h2.673a.382.382,0,1,1,0,.764" transform="translate(-61.12 -159.576)" fill="#373737"/><path d="M36.764,77.527a.764.764,0,1,1,.764-.764.764.764,0,0,1-.764.764m0-.764h0Z" transform="translate(-32.174 -69.12)" fill="#373737"/><path d="M36.764,109.527a.764.764,0,1,1,.764-.764.764.764,0,0,1-.764.764m0-.764h0Z" transform="translate(-32.174 -98.066)" fill="#373737"/><path d="M36.764,141.527a.764.764,0,1,1,.764-.764.764.764,0,0,1-.764.764m0-.764h0Z" transform="translate(-32.174 -127.012)" fill="#373737"/><path d="M36.764,173.527a.764.764,0,1,1,.764-.764.764.764,0,0,1-.764.764m0-.764h0Z" transform="translate(-32.174 -155.957)" fill="#373737"/></g></g></g></svg>