<svg xmlns="http://www.w3.org/2000/svg" xmlns:xlink="http://www.w3.org/1999/xlink" width="36.17" height="52.072" viewBox="0 0 36.17 52.072"><defs><clipPath id="a"><rect width="36.17" height="52.072" fill="none"/></clipPath></defs><g transform="translate(14.119)"><g transform="translate(-14.119)" clip-path="url(#a)"><path d="M33.579,5.588l-11.863,8.5L9.8,5.663A3.029,3.029,0,0,0,5.025,8.154l.086,27.319a3.725,3.725,0,0,0,1.04,2.57l15.693,16.31,15.59-16.408a3.722,3.722,0,0,0,1.023-2.577L38.371,8.049a3.029,3.029,0,0,0-4.792-2.461" transform="translate(-3.656 -3.65)" fill="#fff"/><path d="M18.188,52.072a1.369,1.369,0,0,1-.986-.42L1.509,35.343A5.072,5.072,0,0,1,.086,31.828L0,4.508A4.4,4.4,0,0,1,6.935.9L18.056,8.758,29.126.825h0a4.4,4.4,0,0,1,6.958,3.569l.086,27.319a5.071,5.071,0,0,1-1.4,3.524L19.181,51.646a1.37,1.37,0,0,1-.988.426ZM4.176,2.443a1.689,1.689,0,0,0-.78.194,1.668,1.668,0,0,0-.913,1.511L2.572,31.92a2.385,2.385,0,0,0,.668,1.652L18.183,49.1,33.028,33.478a2.381,2.381,0,0,0,.658-1.656L33.6,4.05A1.688,1.688,0,0,0,30.93,2.676h0L18.871,11.316a1.391,1.391,0,0,1-1.614.005L5.144,2.757a1.671,1.671,0,0,0-.968-.314m25.747-.505h0Z" transform="translate(0 0)" fill="#373737"/><path d="M22.651,26.416a2.342,2.342,0,0,0-3.692,1.921L19.025,49.4a2.87,2.87,0,0,0,.8,1.982l12.13,12.578-.1-31.052Z" transform="translate(-13.795 -18.906)" fill="#fddc0e"/><path d="M75.494,26.18l-9.169,6.555.1,31.052L78.474,51.133a2.87,2.87,0,0,0,.791-1.987L79.2,28.078a2.342,2.342,0,0,0-3.7-1.9" transform="translate(-48.259 -18.728)" fill="#373737"/></g></g></svg>