<svg xmlns="http://www.w3.org/2000/svg" xmlns:xlink="http://www.w3.org/1999/xlink" width="82.523" height="76.568" viewBox="0 0 82.523 76.568"><defs><clipPath id="a"><rect width="82.523" height="76.568" fill="none"/></clipPath></defs><g transform="translate(0 0)"><g transform="translate(0 0)" clip-path="url(#a)"><path d="M67.017,11.78H27.258l-15.477,15.3V85.151H67.017V70.677H88.059a2.942,2.942,0,0,0,3.048-2.98V46.285s.2-2.7-3.552-2.7H67.017Z" transform="translate(-10.182 -10.181)" fill="#fff"/><rect width="47.941" height="6.375" transform="translate(32.983 33.315)" fill="#f6d25e"/><path d="M38.953,40.551H26.266a1.6,1.6,0,0,1,0-3.2H37.354V26.266a1.6,1.6,0,1,1,3.2,0V38.953a1.6,1.6,0,0,1-1.6,1.6" transform="translate(-21.32 -21.319)" fill="#333"/><path d="M78.156,459.455H26.267a1.6,1.6,0,0,1,0-3.2h50.29V444.606a1.6,1.6,0,1,1,3.2,0v13.251a1.6,1.6,0,0,1-1.6,1.6" transform="translate(-21.32 -382.888)" fill="#333"/><path d="M1.6,309.068a1.6,1.6,0,0,1-1.6-1.6l.009-54.3a1.6,1.6,0,0,1,3.2,0l-.009,54.3a1.6,1.6,0,0,1-1.6,1.6" transform="translate(0 -232.5)" fill="#333"/><path d="M56.835,34.649a1.6,1.6,0,0,1-1.6-1.6V3.2h-37.5L3.2,17.564v4.891a1.6,1.6,0,1,1-3.2,0V16.9A1.6,1.6,0,0,1,.475,15.76L15.952.462A1.6,1.6,0,0,1,17.075,0h39.76a1.6,1.6,0,0,1,1.6,1.6V33.05a1.6,1.6,0,0,1-1.6,1.6" fill="#333"/><path d="M278.018,263.9H235.655a4.393,4.393,0,0,1-4.388-4.388V238.1a4.393,4.393,0,0,1,4.388-4.388h42.363a4.393,4.393,0,0,1,4.388,4.388v21.412a4.393,4.393,0,0,1-4.388,4.388m-42.363-26.99a1.192,1.192,0,0,0-1.191,1.19v21.412a1.192,1.192,0,0,0,1.191,1.19h42.363a1.191,1.191,0,0,0,1.19-1.19V238.1a1.192,1.192,0,0,0-1.19-1.19Z" transform="translate(-199.883 -201.992)" fill="#333"/><path d="M297.168,283.883H255.323a1.6,1.6,0,1,1,0-3.2h41.846a1.6,1.6,0,0,1,0,3.2" transform="translate(-219.292 -242.595)" fill="#333"/><path d="M111.942,180.834H77.233a1.6,1.6,0,0,1,0-3.2h34.709a1.6,1.6,0,0,1,0,3.2" transform="translate(-65.37 -153.53)" fill="#333"/><path d="M91.62,244.925H77.232a1.6,1.6,0,1,1,0-3.2H91.62a1.6,1.6,0,0,1,0,3.2" transform="translate(-65.369 -208.924)" fill="#333"/><path d="M203.581,118.005h-20.32a1.6,1.6,0,1,1,0-3.2h20.32a1.6,1.6,0,0,1,0,3.2" transform="translate(-157.009 -99.228)" fill="#333"/><path d="M91.62,309.019H77.232a1.6,1.6,0,1,1,0-3.2H91.62a1.6,1.6,0,0,1,0,3.2" transform="translate(-65.369 -264.319)" fill="#333"/><path d="M91.62,373.111H77.232a1.6,1.6,0,1,1,0-3.2H91.62a1.6,1.6,0,0,1,0,3.2" transform="translate(-65.369 -319.714)" fill="#333"/><path d="M91.62,437.2H77.232a1.6,1.6,0,1,1,0-3.2H91.62a1.6,1.6,0,0,1,0,3.2" transform="translate(-65.369 -375.105)" fill="#333"/><path d="M430.588,335.578H416.853a1.6,1.6,0,1,1,0-3.2h13.735a1.6,1.6,0,0,1,0,3.2" transform="translate(-358.901 -287.274)" fill="#333"/><path d="M430.588,376.309H416.853a1.6,1.6,0,1,1,0-3.2h13.735a1.6,1.6,0,0,1,0,3.2" transform="translate(-358.901 -322.478)" fill="#333"/><rect width="5.898" height="5.898" transform="translate(42.569 46.705)" fill="#333"/><path d="M309.4,341.477h-5.9a1.6,1.6,0,0,1-1.6-1.6v-5.9a1.6,1.6,0,0,1,1.6-1.6h5.9a1.6,1.6,0,0,1,1.6,1.6v5.9a1.6,1.6,0,0,1-1.6,1.6m-4.3-3.2h2.7v-2.7h-2.7Z" transform="translate(-260.93 -287.275)" fill="#333"/></g></g></svg>