<svg xmlns="http://www.w3.org/2000/svg" xmlns:xlink="http://www.w3.org/1999/xlink" width="63.972" height="66.959" viewBox="0 0 63.972 66.959"><defs><clipPath id="a"><rect width="63.972" height="66.959" fill="#373737"/></clipPath></defs><g transform="translate(-509.014 -3753.021)"><rect width="10" height="51" transform="translate(536 3768)" fill="#f6d25e"/><g transform="translate(509.014 3753.021)"><g clip-path="url(#a)"><path d="M70.623,154.175H27.288a5.345,5.345,0,0,1-5.339-5.339V114.812a2,2,0,0,1,2-2H44.112a2,2,0,1,1,0,4H25.953v32.022a1.336,1.336,0,0,0,1.335,1.335H70.623a1.336,1.336,0,0,0,1.335-1.335V116.815H54.128a2,2,0,0,1,0-4H73.96a2,2,0,0,1,2,2v34.024a5.345,5.345,0,0,1-5.339,5.339" transform="translate(-16.969 -87.216)" fill="#373737"/><path d="M58.633,74.866H37.281a2,2,0,0,1,0-4H58.633a1.337,1.337,0,0,0,1.335-1.335V63.89a1.336,1.336,0,0,0-1.335-1.335H5.339A1.336,1.336,0,0,0,4,63.89v5.636a1.337,1.337,0,0,0,1.335,1.335H26.9a2,2,0,0,1,0,4H5.339A5.345,5.345,0,0,1,0,69.526V63.89a5.345,5.345,0,0,1,5.339-5.339H58.633a5.345,5.345,0,0,1,5.339,5.339v5.636a5.345,5.345,0,0,1-5.339,5.339" transform="translate(0 -45.267)" fill="#373737"/><path d="M65.547,17.289a2.013,2.013,0,0,1-.687-.121,2,2,0,0,1-.8.118C48.61,16.394,44.685,11.106,43.72,8.033a6.177,6.177,0,0,1,1.968-6.791A6.412,6.412,0,0,1,51.2.191c5.77,1.214,12.99,8.3,16.112,14.153a2,2,0,0,1-1.765,2.945M49.444,4a1.889,1.889,0,0,0-1.283.388,2.172,2.172,0,0,0-.621,2.443c.781,2.487,4.947,5.322,14.222,6.256C58.5,8.718,53.685,4.806,50.375,4.109A4.526,4.526,0,0,0,49.444,4" transform="translate(-33.559 0)" fill="#373737"/><path d="M134.163,17.288a2,2,0,0,1-1.766-2.944,38.961,38.961,0,0,1,6.578-8.808C141.049,3.462,144.2.847,147.426.168a6.14,6.14,0,0,1,5.223,1.074,6.176,6.176,0,0,1,1.968,6.791c-.965,3.073-4.89,8.361-20.338,9.252-.039,0-.077,0-.116,0M148.979,4a3.533,3.533,0,0,0-.729.083c-2.883.607-7.12,4.352-10.281,8.843,8.3-1.065,12.086-3.738,12.826-6.1a2.173,2.173,0,0,0-.621-2.443,1.814,1.814,0,0,0-1.2-.387" transform="translate(-102.177 0)" fill="#373737"/><path d="M123.491,112.226h-8.866a2,2,0,0,1-2-2V60.553a2,2,0,0,1,2-2h8.866a2,2,0,0,1,2,2v49.671a2,2,0,0,1-2,2m-6.863-4h4.861V62.556h-4.861Z" transform="translate(-87.072 -45.267)" fill="#373737"/></g></g></g></svg>