<svg xmlns="http://www.w3.org/2000/svg" xmlns:xlink="http://www.w3.org/1999/xlink" width="68" height="75" viewBox="0 0 68 75"><defs><clipPath id="a"><rect width="68" height="75" transform="translate(-2.75 -3)" fill="#373737" stroke="#373737" stroke-width="1"/></clipPath></defs><g transform="translate(-152 -4128)"><path d="M-12118-7221.55l14.227,7.195,15.511,1.2v30.579l-9.581,16.013L-12118-7154l-19.513-12.559-9.722-13.851-.73-32.741,17.079-1.2Z" transform="translate(12304 11354)" fill="#fff"/><path d="M-12123.846-7221.55l11.451,5.792,12.485.966v24.613l-7.712,12.89-16.225,10.109-15.706-10.109-7.825-11.149-.588-26.354,13.747-.966Z" transform="translate(12309.823 11360.588)" fill="#f6d25e"/><g transform="translate(154.75 4131)"><g clip-path="url(#a)"><path d="M31.25,70a1.244,1.244,0,0,1-.481-.1,75.171,75.171,0,0,1-15.283-9.07C5.355,53.024,0,44.091,0,35V10A1.25,1.25,0,0,1,1.25,8.75C15.2,8.75,24.725,6.008,30.366.366a1.25,1.25,0,0,1,1.768,0C37.775,6.008,47.3,8.75,61.25,8.75A1.25,1.25,0,0,1,62.5,10V35c0,9.091-5.355,18.024-15.487,25.834A75.171,75.171,0,0,1,31.731,69.9a1.244,1.244,0,0,1-.481.1M2.5,11.244V35c0,18.739,24.947,30.676,28.75,32.385C35.05,65.675,60,53.722,60,35V11.244c-8.914-.087-20.9-1.209-28.75-8.272C23.4,10.035,11.414,11.157,2.5,11.244" transform="translate(0 0)" fill="#373737" stroke="#373737" stroke-width="1"/><path d="M44.958,80.781a1.257,1.257,0,0,1-.553-.129A65.619,65.619,0,0,1,29.112,70.178C23.065,64.447,20,58.558,20,52.675v-7.5a1.25,1.25,0,0,1,2.5,0v7.5c0,10.433,11.966,20.154,22.452,25.457C50.929,75.047,67.5,65.344,67.5,52.675V34.926c-9.3-.677-16.684-2.8-22.5-6.477-5.816,3.675-13.2,5.8-22.5,6.477v5.248a1.25,1.25,0,0,1-2.5,0V33.756a1.25,1.25,0,0,1,1.177-1.248c9.786-.575,17.352-2.73,23.129-6.589a1.25,1.25,0,0,1,1.388,0c5.778,3.859,13.343,6.014,23.129,6.589A1.25,1.25,0,0,1,70,33.756V52.675c0,6.223-3.33,12.361-9.9,18.246a69.84,69.84,0,0,1-14.581,9.727,1.249,1.249,0,0,1-.562.134" transform="translate(-13.75 -17.675)" fill="#373737" stroke="#373737" stroke-width="1"/><path d="M73.5,95.5H66a1.25,1.25,0,0,1-1.25-1.25v-7.5h-7.5A1.25,1.25,0,0,1,56,85.5V78a1.25,1.25,0,0,1,1.25-1.25h7.5v-7.5A1.25,1.25,0,0,1,66,68h7.5a1.25,1.25,0,0,1,1.25,1.25v7.5h7.5A1.25,1.25,0,0,1,83.5,78v7.5a1.25,1.25,0,0,1-1.25,1.25h-7.5v7.5A1.25,1.25,0,0,1,73.5,95.5M67.25,93h5V85.5a1.25,1.25,0,0,1,1.25-1.25H81v-5H73.5A1.25,1.25,0,0,1,72.25,78V70.5h-5V78A1.25,1.25,0,0,1,66,79.25H58.5v5H66a1.25,1.25,0,0,1,1.25,1.25Z" transform="translate(-38.5 -46.75)" fill="#373737" stroke="#373737" stroke-width="1"/></g></g></g></svg>