<svg xmlns="http://www.w3.org/2000/svg" xmlns:xlink="http://www.w3.org/1999/xlink" width="66.774" height="85.293" viewBox="0 0 66.774 85.293"><defs><clipPath id="a"><rect width="66.774" height="85.293" fill="none" stroke="#373737" stroke-width="2"/></clipPath></defs><g clip-path="url(#a)"><path d="M132.13,94.379a17.57,17.57,0,1,0-24.181,16.283,70.884,70.884,0,0,1,0-8.649,9.34,9.34,0,0,1,2.991-6,3.479,3.479,0,0,1-1.084-.6,5.166,5.166,0,0,1-1.772-4.046,5.985,5.985,0,0,1,3.292-5.365,6.666,6.666,0,0,1,6.668.209,5.612,5.612,0,0,1-.175,9.811c3.464,2.83,3.438,6.77,3.438,13.91l-.013.678a17.575,17.575,0,0,0,10.84-16.234" transform="translate(-81.173 -64.283)" fill="#ffd23d" stroke="#373737" stroke-width="2"/><path d="M52.1,85.293H.978A.978.978,0,0,1,0,84.315V.978A.978.978,0,0,1,.978,0H12.93a.978.978,0,1,1,0,1.957H1.957V83.336H52.1a.978.978,0,0,1,0,1.957" fill="#1a1311" stroke="#373737" stroke-width="2"/><path d="M153.15,85.293h-8.7a.978.978,0,1,1,0-1.957h7.719V1.957H105.354a.978.978,0,1,1,0-1.957h47.8a.978.978,0,0,1,.978.978V84.315a.979.979,0,0,1-.978.978" transform="translate(-87.355)" fill="#373737" stroke="#373737" stroke-width="2"/><path d="M158.519,149.074a.978.978,0,0,1-.976-.919,57.808,57.808,0,0,1-.027-8.149,10.228,10.228,0,0,1,2.378-5.68l-.057-.039a6.113,6.113,0,0,1-2.189-4.841,6.958,6.958,0,0,1,3.8-6.229,7.6,7.6,0,0,1,7.667.24,6.907,6.907,0,0,1,3.251,5.514,7.128,7.128,0,0,1-2.381,5.249c2.845,3.028,2.845,7.162,2.845,13.622V148a.978.978,0,1,1-1.957,0v-.161c0-6.976,0-10.477-3.078-12.992A.979.979,0,0,1,168,133.2a4.637,4.637,0,0,0,.056-8.1,5.694,5.694,0,0,0-5.668-.177,4.992,4.992,0,0,0-2.787,4.5,4.235,4.235,0,0,0,1.354,3.252,2.576,2.576,0,0,0,.849.479.978.978,0,0,1,.33,1.649,8.381,8.381,0,0,0-2.671,5.347,56,56,0,0,0,.029,7.877.979.979,0,0,1-.917,1.036l-.061,0" transform="translate(-131.72 -102.352)" fill="#373737" stroke="#373737" stroke-width="2"/><path d="M109.539,107.906a18.549,18.549,0,1,1,18.549-18.549,18.57,18.57,0,0,1-18.549,18.549m0-35.14A16.592,16.592,0,1,0,126.13,89.358a16.611,16.611,0,0,0-16.592-16.592" transform="translate(-76.152 -59.262)" fill="#373737" stroke="#373737" stroke-width="2"/><path d="M116.354,350.585H76.007a.978.978,0,0,1,0-1.957h40.346a.978.978,0,0,1,0,1.957" transform="translate(-62.794 -291.776)" fill="#373737" stroke="#373737" stroke-width="2"/><path d="M116.354,393.15H76.007a.978.978,0,0,1,0-1.957h40.346a.978.978,0,1,1,0,1.957" transform="translate(-62.794 -327.399)" fill="#373737" stroke="#373737" stroke-width="2"/><path d="M116.354,435.716H76.007a.978.978,0,0,1,0-1.957h40.346a.978.978,0,0,1,0,1.957" transform="translate(-62.794 -363.024)" fill="#373737" stroke="#373737" stroke-width="2"/></g></svg>