<svg xmlns="http://www.w3.org/2000/svg" xmlns:xlink="http://www.w3.org/1999/xlink" width="33.022" height="26" viewBox="0 0 33.022 26"><defs><clipPath id="a"><rect width="33.022" height="26" transform="translate(0 0)" fill="#b6d3e0"/></clipPath></defs><g transform="translate(0 -0.003)"><g transform="translate(0 0.003)" clip-path="url(#a)"><path d="M1004.383,381.8a9.438,9.438,0,0,0-12.337-8.475,11.042,11.042,0,0,1-5.329,13.544A9.424,9.424,0,0,0,999,390.822l3.529,1.969a.141.141,0,0,0,.209-.144c-.119-.746-.449-2.785-.7-4.122a9.4,9.4,0,0,0,2.338-6.727" transform="translate(-971.782 -367.219)" fill="#fff"/><path d="M976.011,366.621a.553.553,0,0,1-.27-.071l-3.347-1.867a9.8,9.8,0,0,1-2.011.652,9.91,9.91,0,0,1-2.4.2,9.775,9.775,0,0,1-4.813-1.492,10,10,0,0,1-3.4-3.575.409.409,0,0,1,.166-.561,10.923,10.923,0,0,0,3.989-3.6,10.512,10.512,0,0,0,1.749-5.167,10.642,10.642,0,0,0-.6-4.274.409.409,0,0,1,.258-.527,9.842,9.842,0,0,1,10.562,15.71c.25,1.374.568,3.346.663,3.939a.551.551,0,0,1-.543.636m-.265-.507h0Zm-3.335-2.3a.408.408,0,0,1,.2.052l3.048,1.7c-.147-.907-.405-2.479-.607-3.567a.409.409,0,0,1,.095-.344,8.987,8.987,0,0,0,2.237-6.436h0a9.03,9.03,0,0,0-11.406-8.226,11.464,11.464,0,0,1,.512,4.192,11.329,11.329,0,0,1-1.885,5.57,11.749,11.749,0,0,1-3.913,3.666,9.185,9.185,0,0,0,2.913,2.928,8.957,8.957,0,0,0,4.41,1.367,9.094,9.094,0,0,0,2.2-.183,8.985,8.985,0,0,0,2.02-.68.408.408,0,0,1,.175-.04" transform="translate(-945.191 -340.621)" fill="#373737"/><path d="M44.558,31.625A9.436,9.436,0,0,1,32.39,44.949l-3.529,1.969a.141.141,0,0,1-.209-.144c.119-.746.449-2.785.7-4.122A9.434,9.434,0,1,1,44.558,31.625" transform="translate(-26.59 -26.58)" fill="#f6d25e"/><path d="M2.2,20.767a.55.55,0,0,1-.542-.636c.122-.762.422-2.616.663-3.939a9.817,9.817,0,1,1,7.908,3.489,9.917,9.917,0,0,1-2.4-.2,9.8,9.8,0,0,1-2.011-.652L2.471,20.7a.552.552,0,0,1-.27.071M9.837.82q-.291,0-.584.019A9.023,9.023,0,0,0,3.066,15.8a.409.409,0,0,1,.095.344c-.2,1.079-.452,2.609-.607,3.567l3.048-1.7A.409.409,0,0,1,5.975,18a8.985,8.985,0,0,0,2.02.68,9.1,9.1,0,0,0,2.2.183A9.026,9.026,0,0,0,9.837.82" transform="translate(0.001 -0.002)" fill="#373737"/><path d="M1364.587,725.3a.545.545,0,0,1-.5-.319l-2.7-5.91-2.7,5.91a.545.545,0,0,1-.991-.452l2.891-6.335a.877.877,0,0,1,1.6,0l2.891,6.335a.545.545,0,0,1-.5.771" transform="translate(-1337.105 -706.816)" fill="#373737"/><path d="M1446.219,1001.227H1442.6a.545.545,0,1,1,0-1.09h3.622a.545.545,0,1,1,0,1.09" transform="translate(-1420.225 -984.999)" fill="#373737"/><path d="M744.611,716.6a.545.545,0,0,1-.477-.28,5.729,5.729,0,0,0-1.258-1.565,3.274,3.274,0,0,0-.634-.438l0,0,.451-.992a5.842,5.842,0,0,1,2.39,2.464.545.545,0,0,1-.476.81" transform="translate(-731.008 -702.529)" fill="#373737"/><path d="M360.352,352.908A4.456,4.456,0,1,1,363.5,351.6a4.427,4.427,0,0,1-3.151,1.305m0-7.823a3.366,3.366,0,1,0,2.38.986,3.344,3.344,0,0,0-2.38-.986" transform="translate(-350.509 -338.789)" fill="#373737"/></g></g></svg>