<svg xmlns="http://www.w3.org/2000/svg" xmlns:xlink="http://www.w3.org/1999/xlink" width="43.94" height="41.703" viewBox="0 0 43.94 41.703"><defs><clipPath id="a"><rect width="43.94" height="41.703" fill="#ffe9a3"/></clipPath></defs><g transform="translate(-1)"><g transform="translate(1)" clip-path="url(#a)"><path d="M132.553,13.576c.025,5.227-2.408,8.385-5.427,8.375s-5.481-3.182-5.506-8.408,2.4-10.527,5.416-10.518,5.492,5.325,5.516,10.551" transform="translate(-112.301 -2.793)" fill="#ffe9a3"/><path d="M305.53,10.107c.012,5.05-2.388,8.14-5.357,8.18s-5.383-2.987-5.395-8.036S297.162.04,300.13,0s5.388,5.057,5.4,10.106" transform="translate(-272.191 0)" fill="#ffe9a3"/><path d="M10.219,202.843c.649,4.566-1.214,7.613-4,7.96s-5.43-2.137-6.079-6.7.948-9.484,3.73-9.831,5.7,4.009,6.345,8.574" transform="translate(0 -179.365)" fill="#ffe9a3"/><path d="M446.809,204.222c-.382,4.5-2.945,7.056-5.82,6.842s-4.974-3.115-4.591-7.618,3.1-8.9,5.976-8.688,4.817,4.961,4.435,9.464" transform="translate(-402.918 -179.828)" fill="#ffe9a3"/><path d="M157.386,294.321c-.38-5.685-5.364-11.841-9.5-11.5-.779.065-3.6.1-4.372.049-4.123-.25-8.858,5.991-9.409,11.686s1.21,8.031,5.333,8.281c1.379.084,5.2-1.473,6.381-2.132,1.159.633,4.558,2.16,5.939,2.046,4.132-.342,6-2.745,5.624-8.431" transform="translate(-123.741 -261.139)" fill="#ffe9a3"/></g></g></svg>