<?xml version="1.0" encoding="UTF-8"?>
<svg id="_レイヤー_1" data-name="レイヤー 1" xmlns="http://www.w3.org/2000/svg" viewBox="0 0 17.51 18.34">
  <defs>
    <style>
      .cls-1 {
        fill: none;
      }

      .cls-2 {
        fill: #de2d2d;
      }

      .cls-3 {
        fill: #e02d2d;
      }

      .cls-4 {
        fill: #df2d2d;
      }
    </style>
  </defs>
  <path class="cls-1" d="M0,0v4.91c0-.29.23-.52.52-.52h8.83c.29,0,.52.23.52.52h0s0,3.7,0,3.7c0,.29-.23.52-.52.52H.52c-.29,0-.52-.23-.52-.52v9.73h17.51V0H0ZM5.77,11.91h8.73v.65H5.77v-.65ZM5.77,13.42h8.73v.65H5.77v-.65ZM5.77,14.92h8.73v.65H5.77v-.65ZM17.5,16.48c0,1.03-.84,1.87-1.87,1.87H4.62c-1.03,0-1.87-.84-1.87-1.87v-6.82h.8v6.82c0,.59.48,1.06,1.06,1.06h11.02c.59,0,1.06-.48,1.06-1.06V5.39h-3.42c-.64,0-1.17-.52-1.16-1.17V.8h-7.49s0,0,0,0c-.59,0-1.06.48-1.06,1.06v1.98h-.8v-1.98C2.76.84,3.59,0,4.62,0h7.18c.2,0,.39.08.53.22l.59.58,3.78,3.79.59.59h0c.14.14.22.33.22.53v10.78Z"/>
  <path class="cls-4" d="M17.29,5.17l-.59-.59-3.78-3.79-.59-.58C12.19.08,12,0,11.81,0h-7.18c-1.03,0-1.86.84-1.86,1.86v1.98h.8v-1.98c0-.59.47-1.06,1.06-1.06,0,0,0,0,0,0h7.49v3.42c0,.64.52,1.17,1.16,1.17h3.42v11.09c0,.59-.48,1.06-1.06,1.06H4.62c-.59,0-1.06-.48-1.06-1.06v-6.82h-.8v6.82c0,1.03.84,1.87,1.87,1.87h11.01c1.03,0,1.87-.84,1.87-1.87V5.7c0-.2-.08-.39-.22-.53h0Z"/>
  <path class="cls-3" d="M5.56,6.73c0-.65-.3-.93-.83-.93h-.2v1.87h.2c.53,0,.83-.3.83-.95Z"/>
  <path class="cls-3" d="M2.52,6.71c.39,0,.58-.15.58-.48s-.21-.44-.6-.44h-.32v.92h.34Z"/>
  <path class="cls-3" d="M.52,9.13h8.83c.29,0,.52-.23.52-.52v-3.7h0c0-.28-.23-.52-.52-.52H.52c-.29,0-.52.23-.52.52v3.7c0,.29.23.52.52.52ZM6.57,5.42h1.59v.39h-1.12s0,.74,0,.74h.96v.39h-.96v1.1h-.47v-2.63ZM4.05,5.42h.7c.7.01,1.27.57,1.29,1.27.03.73-.54,1.34-1.27,1.36h-.73v-2.63ZM1.71,5.42h.83c.24-.01.48.04.69.16.22.14.35.39.32.66.02.27-.11.52-.32.67-.2.13-.44.19-.68.18h-.38v.97h-.47v-2.63Z"/>
  <rect class="cls-2" x="5.77" y="11.91" width="8.73" height=".65"/>
  <rect class="cls-2" x="5.77" y="13.42" width="8.73" height=".65"/>
  <rect class="cls-2" x="5.77" y="14.92" width="8.73" height=".65"/>
</svg>